<svg width="14" height="14" viewBox="0 0 14 14" fill="none" xmlns="http://www.w3.org/2000/svg">
<g clip-path="url(#clip0_7627_3424)">
<path d="M11.5238 2.68625L10.0888 3.3075C9.66875 2.9575 9.1875 2.6775 8.6625 2.485L8.47 0.91875C8.45925 0.826035 8.4197 0.739024 8.35692 0.669962C8.29413 0.600899 8.21127 0.55326 8.12 0.53375C7.7525 0.4725 7.385 0.4375 7 0.4375C6.615 0.4375 6.2475 0.4725 5.88 0.53375C5.6875 0.56875 5.5475 0.72625 5.53 0.91875L5.34625 2.485C4.82125 2.6775 4.34 2.9575 3.92 3.3075L2.47625 2.68625C2.39088 2.64698 2.29498 2.63684 2.20328 2.65739C2.11159 2.67794 2.02919 2.72805 1.96875 2.8C1.4875 3.36875 1.1025 4.025 0.84 4.73375C0.77 4.9175 0.84 5.11875 0.9975 5.24125L2.26625 6.18625C2.16121 6.72661 2.16121 7.28214 2.26625 7.8225L0.9975 8.7675C0.84 8.88125 0.77875 9.09125 0.84 9.275C1.1025 9.98375 1.4875 10.6313 1.96 11.2C2.0825 11.3488 2.2925 11.3925 2.4675 11.3138L3.91125 10.6925C4.33125 11.0425 4.8125 11.3225 5.3375 11.515L5.52125 13.0812C5.5475 13.2737 5.6875 13.4313 5.87125 13.4663C6.2475 13.5275 6.615 13.5625 7 13.5625C7.385 13.5625 7.7525 13.5275 8.12 13.4663C8.3125 13.4313 8.4525 13.2737 8.47 13.0812L8.65375 11.515C9.17875 11.3225 9.66 11.0425 10.08 10.6925L11.5238 11.3138C11.6988 11.3925 11.9088 11.3488 12.0313 11.2C12.5038 10.6313 12.8888 9.98375 13.1513 9.275C13.2213 9.09125 13.1513 8.89 12.9938 8.77625L11.725 7.83125C11.7863 7.55125 11.8125 7.28 11.8125 7C11.8125 6.72 11.7863 6.44875 11.7338 6.1775L13.0025 5.2325C13.16 5.11875 13.2213 4.90875 13.16 4.725C12.8975 4.01625 12.5125 3.36875 12.04 2.8C11.9773 2.72851 11.8934 2.67892 11.8005 2.65846C11.7077 2.63799 11.6107 2.64773 11.5238 2.68625Z" stroke="#535862" stroke-width="1.2"/>
<path d="M7 9.1875C8.20812 9.1875 9.1875 8.20812 9.1875 7C9.1875 5.79188 8.20812 4.8125 7 4.8125C5.79188 4.8125 4.8125 5.79188 4.8125 7C4.8125 8.20812 5.79188 9.1875 7 9.1875Z" stroke="#535862" stroke-width="1.2"/>
</g>
<defs>
<clipPath id="clip0_7627_3424">
<rect width="14" height="14" fill="white"/>
</clipPath>
</defs>
</svg>
