<svg width="24" height="24" viewBox="0 0 24 24" fill="none" xmlns="http://www.w3.org/2000/svg">
<circle cx="11.6435" cy="12.3565" r="11.6435" fill="#182AA1"/>
<path d="M15.3074 4.30399C15.6148 4.30399 15.864 4.05452 15.864 3.74678C15.864 3.43904 15.6148 3.18958 15.3074 3.18958C15 3.18958 14.7507 3.43904 14.7507 3.74678C14.7507 4.05452 15 4.30399 15.3074 4.30399Z" fill="white" fill-opacity="0.8"/>
<path d="M17.3469 5.55655C17.6544 5.55655 17.9036 5.30708 17.9036 4.99934C17.9036 4.69161 17.6544 4.44214 17.3469 4.44214C17.0395 4.44214 16.7903 4.69161 16.7903 4.99934C16.7903 5.30708 17.0395 5.55655 17.3469 5.55655Z" fill="white" fill-opacity="0.8"/>
<path d="M19.4553 7.87894C19.7628 7.87894 20.012 7.62947 20.012 7.32173C20.012 7.014 19.7628 6.76453 19.4553 6.76453C19.1479 6.76453 18.8987 7.014 18.8987 7.32173C18.8987 7.62947 19.1479 7.87894 19.4553 7.87894Z" fill="white" fill-opacity="0.8"/>
<path d="M20.4602 10.2113C20.7676 10.2113 21.0169 9.96186 21.0169 9.65413C21.0169 9.34639 20.7676 9.09692 20.4602 9.09692C20.1528 9.09692 19.9036 9.34639 19.9036 9.65413C19.9036 9.96186 20.1528 10.2113 20.4602 10.2113Z" fill="white" fill-opacity="0.8"/>
<path d="M20.9087 12.5751C21.2161 12.5751 21.4653 12.3256 21.4653 12.0179C21.4653 11.7102 21.2161 11.4607 20.9087 11.4607C20.6013 11.4607 20.3521 11.7102 20.3521 12.0179C20.3521 12.3256 20.6013 12.5751 20.9087 12.5751Z" fill="white" fill-opacity="0.8"/>
<path d="M20.5686 15.0457C20.876 15.0457 21.1253 14.7962 21.1253 14.4885C21.1253 14.1807 20.876 13.9313 20.5686 13.9313C20.2612 13.9313 20.012 14.1807 20.012 14.4885C20.012 14.7962 20.2612 15.0457 20.5686 15.0457Z" fill="white" fill-opacity="0.8"/>
<path d="M18.1204 19.3406C18.4278 19.3406 18.677 19.0911 18.677 18.7834C18.677 18.4757 18.4278 18.2262 18.1204 18.2262C17.8129 18.2262 17.5637 18.4757 17.5637 18.7834C17.5637 19.0911 17.8129 19.3406 18.1204 19.3406Z" fill="white" fill-opacity="0.8"/>
<path d="M16.1902 21.0547C16.4976 21.0547 16.7468 20.8052 16.7468 20.4975C16.7468 20.1898 16.4976 19.9403 16.1902 19.9403C15.8828 19.9403 15.6335 20.1898 15.6335 20.4975C15.6335 20.8052 15.8828 21.0547 16.1902 21.0547Z" fill="white" fill-opacity="0.8"/>
<path d="M19.6524 17.3189C19.9598 17.3189 20.209 17.0694 20.209 16.7617C20.209 16.4539 19.9598 16.2045 19.6524 16.2045C19.3449 16.2045 19.0957 16.4539 19.0957 16.7617C19.0957 17.0694 19.3449 17.3189 19.6524 17.3189Z" fill="white" fill-opacity="0.8"/>
<path d="M13.8552 21.9718C14.1627 21.9718 14.4119 21.7224 14.4119 21.4146C14.4119 21.1069 14.1627 20.8574 13.8552 20.8574C13.5478 20.8574 13.2986 21.1069 13.2986 21.4146C13.2986 21.7224 13.5478 21.9718 13.8552 21.9718Z" fill="white" fill-opacity="0.8"/>
<path d="M15.7664 14.8909C16.0738 14.8909 16.323 14.6414 16.323 14.3337C16.323 14.026 16.0738 13.7765 15.7664 13.7765C15.4589 13.7765 15.2097 14.026 15.2097 14.3337C15.2097 14.6414 15.4589 14.8909 15.7664 14.8909Z" fill="white" fill-opacity="0.1"/>
<path d="M17.7468 16.2124C18.0543 16.2124 18.3035 15.963 18.3035 15.6552C18.3035 15.3475 18.0543 15.098 17.7468 15.098C17.4394 15.098 17.1902 15.3475 17.1902 15.6552C17.1902 15.963 17.4394 16.2124 17.7468 16.2124Z" fill="white" fill-opacity="0.4"/>
<path d="M16.1458 12.4748C16.4532 12.4748 16.7024 12.2253 16.7024 11.9176C16.7024 11.6098 16.4532 11.3604 16.1458 11.3604C15.8383 11.3604 15.5891 11.6098 15.5891 11.9176C15.5891 12.2253 15.8383 12.4748 16.1458 12.4748Z" fill="white" fill-opacity="0.1"/>
<path d="M18.4414 13.7963C18.7488 13.7963 18.9981 13.5468 18.9981 13.2391C18.9981 12.9314 18.7488 12.6819 18.4414 12.6819C18.134 12.6819 17.8848 12.9314 17.8848 13.2391C17.8848 13.5468 18.134 13.7963 18.4414 13.7963Z" fill="#747FC7"/>
<path d="M16.2246 18.1602C16.532 18.1602 16.7813 17.9107 16.7813 17.603C16.7813 17.2952 16.532 17.0458 16.2246 17.0458C15.9172 17.0458 15.668 17.2952 15.668 17.603C15.668 17.9107 15.9172 18.1602 16.2246 18.1602Z" fill="white" fill-opacity="0.4"/>
<path d="M14.1558 16.7055C14.4632 16.7055 14.7124 16.456 14.7124 16.1483C14.7124 15.8405 14.4632 15.5911 14.1558 15.5911C13.8483 15.5911 13.5991 15.8405 13.5991 16.1483C13.5991 16.456 13.8483 16.7055 14.1558 16.7055Z" fill="white" fill-opacity="0.1"/>
<path d="M11.7961 17.4009C12.1036 17.4009 12.3528 17.1514 12.3528 16.8437C12.3528 16.536 12.1036 16.2865 11.7961 16.2865C11.4887 16.2865 11.2395 16.536 11.2395 16.8437C11.2395 17.1514 11.4887 17.4009 11.7961 17.4009Z" fill="white" fill-opacity="0.1"/>
<path d="M14.0669 19.4324C14.3743 19.4324 14.6235 19.1829 14.6235 18.8752C14.6235 18.5675 14.3743 18.318 14.0669 18.318C13.7595 18.318 13.5103 18.5675 13.5103 18.8752C13.5103 19.1829 13.7595 19.4324 14.0669 19.4324Z" fill="white" fill-opacity="0.4"/>
<path d="M11.5547 19.8664C11.8621 19.8664 12.1113 19.6169 12.1113 19.3092C12.1113 19.0014 11.8621 18.752 11.5547 18.752C11.2473 18.752 10.998 19.0014 10.998 19.3092C10.998 19.6169 11.2473 19.8664 11.5547 19.8664Z" fill="white" fill-opacity="0.4"/>
<path d="M9.11622 19.4029C9.42365 19.4029 9.67287 19.1534 9.67287 18.8457C9.67287 18.5379 9.42365 18.2885 9.11622 18.2885C8.80879 18.2885 8.55957 18.5379 8.55957 18.8457C8.55957 19.1534 8.80879 19.4029 9.11622 19.4029Z" fill="white" fill-opacity="0.4"/>
<path d="M9.46607 16.9076C9.7735 16.9076 10.0227 16.6582 10.0227 16.3504C10.0227 16.0427 9.7735 15.7932 9.46607 15.7932C9.15864 15.7932 8.90942 16.0427 8.90942 16.3504C8.90942 16.6582 9.15864 16.9076 9.46607 16.9076Z" fill="white" fill-opacity="0.1"/>
<path d="M11.3181 22.2085C11.6256 22.2085 11.8748 21.9591 11.8748 21.6513C11.8748 21.3436 11.6256 21.0941 11.3181 21.0941C11.0107 21.0941 10.7615 21.3436 10.7615 21.6513C10.7615 21.9591 11.0107 22.2085 11.3181 22.2085Z" fill="white" fill-opacity="0.8"/>
<path d="M8.86011 21.8091C9.16754 21.8091 9.41676 21.5596 9.41676 21.2519C9.41676 20.9442 9.16754 20.6947 8.86011 20.6947C8.55269 20.6947 8.30347 20.9442 8.30347 21.2519C8.30347 21.5596 8.55269 21.8091 8.86011 21.8091Z" fill="white" fill-opacity="0.8"/>
<path d="M6.64332 20.6996C6.95075 20.6996 7.19997 20.4501 7.19997 20.1424C7.19997 19.8347 6.95075 19.5852 6.64332 19.5852C6.33589 19.5852 6.08667 19.8347 6.08667 20.1424C6.08667 20.4501 6.33589 20.6996 6.64332 20.6996Z" fill="white" fill-opacity="0.8"/>
<path d="M6.94874 18.1306C7.25617 18.1306 7.50539 17.8812 7.50539 17.5734C7.50539 17.2657 7.25617 17.0162 6.94874 17.0162C6.64131 17.0162 6.39209 17.2657 6.39209 17.5734C6.39209 17.8812 6.64131 18.1306 6.94874 18.1306Z" fill="white" fill-opacity="0.4"/>
<path d="M7.64356 15.2262C7.95099 15.2262 8.20021 14.9768 8.20021 14.669C8.20021 14.3613 7.95099 14.1118 7.64356 14.1118C7.33613 14.1118 7.08691 14.3613 7.08691 14.669C7.08691 14.9768 7.33613 15.2262 7.64356 15.2262Z" fill="white" fill-opacity="0.1"/>
<path d="M6.99805 12.9334C7.30548 12.9334 7.5547 12.6839 7.5547 12.3762C7.5547 12.0684 7.30548 11.819 6.99805 11.819C6.69063 11.819 6.44141 12.0684 6.44141 12.3762C6.44141 12.6839 6.69063 12.9334 6.99805 12.9334Z" fill="white" fill-opacity="0.1"/>
<path d="M7.71241 10.4777C8.01984 10.4777 8.26906 10.2282 8.26906 9.92049C8.26906 9.61275 8.01984 9.36328 7.71241 9.36328C7.40498 9.36328 7.15576 9.61275 7.15576 9.92049C7.15576 10.2282 7.40498 10.4777 7.71241 10.4777Z" fill="white" fill-opacity="0.1"/>
<path d="M10.1607 8.61368C10.4681 8.61368 10.7173 8.36421 10.7173 8.05647C10.7173 7.74874 10.4681 7.49927 10.1607 7.49927C9.85322 7.49927 9.604 7.74874 9.604 8.05647C9.604 8.36421 9.85322 8.61368 10.1607 8.61368Z" fill="white" fill-opacity="0.1"/>
<path d="M10.6631 3.63834C10.9705 3.63834 11.2197 3.38887 11.2197 3.08113C11.2197 2.77339 10.9705 2.52393 10.6631 2.52393C10.3557 2.52393 10.1064 2.77339 10.1064 3.08113C10.1064 3.38887 10.3557 3.63834 10.6631 3.63834Z" fill="#FAFAFA"/>
<path d="M15.1802 10.0191C15.4876 10.0191 15.7368 9.7696 15.7368 9.46187C15.7368 9.15413 15.4876 8.90466 15.1802 8.90466C14.8728 8.90466 14.6235 9.15413 14.6235 9.46187C14.6235 9.7696 14.8728 10.0191 15.1802 10.0191Z" fill="white" fill-opacity="0.1"/>
<path d="M13.1853 8.70743C13.4927 8.70743 13.742 8.45796 13.742 8.15022C13.742 7.84249 13.4927 7.59302 13.1853 7.59302C12.8779 7.59302 12.6287 7.84249 12.6287 8.15022C12.6287 8.45796 12.8779 8.70743 13.1853 8.70743Z" fill="white" fill-opacity="0.1"/>
<path d="M13.126 11.4195C13.4334 11.4195 13.6826 11.17 13.6826 10.8623C13.6826 10.5545 13.4334 10.3051 13.126 10.3051C12.8186 10.3051 12.5693 10.5545 12.5693 10.8623C12.5693 11.17 12.8186 11.4195 13.126 11.4195Z" fill="white" fill-opacity="0.04"/>
<path d="M13.6238 13.5103C13.9312 13.5103 14.1804 13.2608 14.1804 12.9531C14.1804 12.6453 13.9312 12.3959 13.6238 12.3959C13.3164 12.3959 13.0671 12.6453 13.0671 12.9531C13.0671 13.2608 13.3164 13.5103 13.6238 13.5103Z" fill="white" fill-opacity="0.04"/>
<path d="M11.9338 15.0093C12.2413 15.0093 12.4905 14.7598 12.4905 14.4521C12.4905 14.1444 12.2413 13.8949 11.9338 13.8949C11.6264 13.8949 11.3772 14.1444 11.3772 14.4521C11.3772 14.7598 11.6264 15.0093 11.9338 15.0093Z" fill="white" fill-opacity="0.04"/>
<path d="M9.90455 14.2105C10.212 14.2105 10.4612 13.961 10.4612 13.6533C10.4612 13.3455 10.212 13.0961 9.90455 13.0961C9.59712 13.0961 9.3479 13.3455 9.3479 13.6533C9.3479 13.961 9.59712 14.2105 9.90455 14.2105Z" fill="white" fill-opacity="0.04"/>
<path d="M9.56959 11.893C9.87702 11.893 10.1262 11.6435 10.1262 11.3358C10.1262 11.028 9.87702 10.7786 9.56959 10.7786C9.26216 10.7786 9.01294 11.028 9.01294 11.3358C9.01294 11.6435 9.26216 11.893 9.56959 11.893Z" fill="white" fill-opacity="0.04"/>
<path d="M11.1804 10.6848C11.4879 10.6848 11.7371 10.4354 11.7371 10.1276C11.7371 9.8199 11.4879 9.57043 11.1804 9.57043C10.873 9.57043 10.6238 9.8199 10.6238 10.1276C10.6238 10.4354 10.873 10.6848 11.1804 10.6848Z" fill="white" fill-opacity="0.04"/>
<path d="M17.2788 8.87015C17.5862 8.87015 17.8355 8.62068 17.8355 8.31294C17.8355 8.00521 17.5862 7.75574 17.2788 7.75574C16.9714 7.75574 16.7222 8.00521 16.7222 8.31294C16.7222 8.62068 16.9714 8.87015 17.2788 8.87015Z" fill="#747FC7"/>
<path d="M18.4414 11.3012C18.7488 11.3012 18.9981 11.0517 18.9981 10.744C18.9981 10.4362 18.7488 10.1868 18.4414 10.1868C18.134 10.1868 17.8848 10.4362 17.8848 10.744C17.8848 11.0517 18.134 11.3012 18.4414 11.3012Z" fill="white" fill-opacity="0.4"/>
<path d="M15.481 7.05545C15.7884 7.05545 16.0376 6.80598 16.0376 6.49825C16.0376 6.19051 15.7884 5.94104 15.481 5.94104C15.1735 5.94104 14.9243 6.19051 14.9243 6.49825C14.9243 6.80598 15.1735 7.05545 15.481 7.05545Z" fill="white" fill-opacity="0.4"/>
<path d="M13.126 5.98563C13.4334 5.98563 13.6826 5.73616 13.6826 5.42842C13.6826 5.12068 13.4334 4.87122 13.126 4.87122C12.8186 4.87122 12.5693 5.12068 12.5693 5.42842C12.5693 5.73616 12.8186 5.98563 13.126 5.98563Z" fill="white" fill-opacity="0.4"/>
<path d="M13.0957 3.61868C13.4031 3.61868 13.6524 3.36921 13.6524 3.06148C13.6524 2.75374 13.4031 2.50427 13.0957 2.50427C12.7883 2.50427 12.5391 2.75374 12.5391 3.06148C12.5391 3.36921 12.7883 3.61868 13.0957 3.61868Z" fill="white" fill-opacity="0.8"/>
<path d="M10.3379 6.03494C10.6453 6.03494 10.8945 5.78547 10.8945 5.47774C10.8945 5.17 10.6453 4.92053 10.3379 4.92053C10.0305 4.92053 9.78125 5.17 9.78125 5.47774C9.78125 5.78547 10.0305 6.03494 10.3379 6.03494Z" fill="white" fill-opacity="0.4"/>
<path d="M7.80592 4.29422C8.11334 4.29422 8.36256 4.04475 8.36256 3.73701C8.36256 3.42928 8.11334 3.17981 7.80592 3.17981C7.49849 3.17981 7.24927 3.42928 7.24927 3.73701C7.24927 4.04475 7.49849 4.29422 7.80592 4.29422Z" fill="white" fill-opacity="0.8"/>
<path d="M7.57447 7.18863C7.8819 7.18863 8.13112 6.93916 8.13112 6.63142C8.13112 6.32369 7.8819 6.07422 7.57447 6.07422C7.26704 6.07422 7.01782 6.32369 7.01782 6.63142C7.01782 6.93916 7.26704 7.18863 7.57447 7.18863Z" fill="white" fill-opacity="0.4"/>
<path d="M5.77149 5.61575C6.07892 5.61575 6.32814 5.36628 6.32814 5.05855C6.32814 4.75081 6.07892 4.50134 5.77149 4.50134C5.46406 4.50134 5.21484 4.75081 5.21484 5.05855C5.21484 5.36628 5.46406 5.61575 5.77149 5.61575Z" fill="white" fill-opacity="0.8"/>
<path d="M3.97852 7.43521C4.28595 7.43521 4.53517 7.18574 4.53517 6.87801C4.53517 6.57027 4.28595 6.3208 3.97852 6.3208C3.67109 6.3208 3.42188 6.57027 3.42188 6.87801C3.42188 7.18574 3.67109 7.43521 3.97852 7.43521Z" fill="white" fill-opacity="0.8"/>
<path d="M5.79127 8.93423C6.0987 8.93423 6.34791 8.68477 6.34791 8.37703C6.34791 8.06929 6.0987 7.81982 5.79127 7.81982C5.48384 7.81982 5.23462 8.06929 5.23462 8.37703C5.23462 8.68477 5.48384 8.93423 5.79127 8.93423Z" fill="white" fill-opacity="0.4"/>
<path d="M4.82569 11.2025C5.13312 11.2025 5.38234 10.9531 5.38234 10.6453C5.38234 10.3376 5.13312 10.0881 4.82569 10.0881C4.51826 10.0881 4.26904 10.3376 4.26904 10.6453C4.26904 10.9531 4.51826 11.2025 4.82569 11.2025Z" fill="white" fill-opacity="0.4"/>
<path d="M2.84058 9.72317C3.14801 9.72317 3.39723 9.47371 3.39723 9.16597C3.39723 8.85823 3.14801 8.60876 2.84058 8.60876C2.53316 8.60876 2.28394 8.85823 2.28394 9.16597C2.28394 9.47371 2.53316 9.72317 2.84058 9.72317Z" fill="white" fill-opacity="0.8"/>
<path d="M4.65333 13.6928C4.96076 13.6928 5.20998 13.4433 5.20998 13.1356C5.20998 12.8278 4.96076 12.5784 4.65333 12.5784C4.3459 12.5784 4.09668 12.8278 4.09668 13.1356C4.09668 13.4433 4.3459 13.6928 4.65333 13.6928Z" fill="white" fill-opacity="0.4"/>
<path d="M5.45142 16.1237C5.75885 16.1237 6.00807 15.8742 6.00807 15.5665C6.00807 15.2587 5.75885 15.0093 5.45142 15.0093C5.14399 15.0093 4.89478 15.2587 4.89478 15.5665C4.89478 15.8742 5.14399 16.1237 5.45142 16.1237Z" fill="white" fill-opacity="0.4"/>
<path d="M2.34791 12.1591C2.65534 12.1591 2.90456 11.9096 2.90456 11.6019C2.90456 11.2941 2.65534 11.0447 2.34791 11.0447C2.04048 11.0447 1.79126 11.2941 1.79126 11.6019C1.79126 11.9096 2.04048 12.1591 2.34791 12.1591Z" fill="white" fill-opacity="0.8"/>
<path d="M2.44141 14.6394C2.74884 14.6394 2.99806 14.39 2.99806 14.0822C2.99806 13.7745 2.74884 13.525 2.44141 13.525C2.13399 13.525 1.88477 13.7745 1.88477 14.0822C1.88477 14.39 2.13399 14.6394 2.44141 14.6394Z" fill="white" fill-opacity="0.8"/>
<path d="M3.25928 17.0359C3.56671 17.0359 3.81593 16.7865 3.81593 16.4787C3.81593 16.171 3.56671 15.9215 3.25928 15.9215C2.95186 15.9215 2.70264 16.171 2.70264 16.4787C2.70264 16.7865 2.95186 17.0359 3.25928 17.0359Z" fill="white" fill-opacity="0.8"/>
<path d="M4.66822 19.1464C4.97565 19.1464 5.22487 18.8969 5.22487 18.5892C5.22487 18.2815 4.97565 18.032 4.66822 18.032C4.36079 18.032 4.11157 18.2815 4.11157 18.5892C4.11157 18.8969 4.36079 19.1464 4.66822 19.1464Z" fill="white" fill-opacity="0.8"/>
<path d="M14.7442 18.1364H13.1186L12.094 15.2173H7.11373L6.10388 18.1364H4.47827L8.50288 7.09094H10.7245L14.7442 18.1364ZM7.65067 13.7182H11.5768L9.60633 8.22508L7.65067 13.7182Z" fill="white"/>
<path d="M16.1876 7.26854C16.3797 7.08116 16.6162 6.98254 16.8871 6.98254C17.1581 6.98254 17.3945 7.07623 17.5866 7.26854C17.7787 7.46085 17.8773 7.69261 17.8773 7.97861C17.8773 8.26461 17.7787 8.5013 17.5866 8.68868C17.3945 8.87605 17.1581 8.97468 16.8871 8.97468C16.6162 8.97468 16.3797 8.88099 16.1876 8.68868C15.9955 8.5013 15.897 8.26461 15.897 7.97861C15.897 7.69261 15.9955 7.45592 16.1876 7.26854ZM16.163 10.168H17.631V18.1365H16.163V10.168Z" fill="white"/>
</svg>
