<svg width="24" height="24" viewBox="0 0 24 24" fill="none" xmlns="http://www.w3.org/2000/svg">
<circle cx="11.6435" cy="12.3565" r="11.5185" stroke="#182AA1" stroke-width="0.25"/>
<path d="M15.5469 4.30226C15.8543 4.30226 16.1035 4.05304 16.1035 3.74561C16.1035 3.43818 15.8543 3.18896 15.5469 3.18896C15.2395 3.18896 14.9902 3.43818 14.9902 3.74561C14.9902 4.05304 15.2395 4.30226 15.5469 4.30226Z" fill="#182AA1"/>
<path d="M17.5862 5.5536C17.8936 5.5536 18.1428 5.30438 18.1428 4.99696C18.1428 4.68953 17.8936 4.44031 17.5862 4.44031C17.2788 4.44031 17.0295 4.68953 17.0295 4.99696C17.0295 5.30438 17.2788 5.5536 17.5862 5.5536Z" fill="#182AA1"/>
<path d="M19.6946 7.87379C20.002 7.87379 20.2512 7.62457 20.2512 7.31715C20.2512 7.00972 20.002 6.7605 19.6946 6.7605C19.3872 6.7605 19.1379 7.00972 19.1379 7.31715C19.1379 7.62457 19.3872 7.87379 19.6946 7.87379Z" fill="#182AA1"/>
<path d="M20.6995 10.2037C21.0069 10.2037 21.2561 9.95453 21.2561 9.6471C21.2561 9.33967 21.0069 9.09045 20.6995 9.09045C20.392 9.09045 20.1428 9.33967 20.1428 9.6471C20.1428 9.95453 20.392 10.2037 20.6995 10.2037Z" fill="#182AA1"/>
<path d="M21.1477 12.6964C21.4551 12.6964 21.7044 12.4472 21.7044 12.1398C21.7044 11.8323 21.4551 11.5831 21.1477 11.5831C20.8403 11.5831 20.5911 11.8323 20.5911 12.1398C20.5911 12.4472 20.8403 12.6964 21.1477 12.6964Z" fill="#182AA1"/>
<path d="M20.8079 15.1642C21.1153 15.1642 21.3645 14.915 21.3645 14.6076C21.3645 14.3001 21.1153 14.0509 20.8079 14.0509C20.5004 14.0509 20.2512 14.3001 20.2512 14.6076C20.2512 14.915 20.5004 15.1642 20.8079 15.1642Z" fill="#182AA1"/>
<path d="M18.3596 19.455C18.6671 19.455 18.9163 19.2057 18.9163 18.8983C18.9163 18.5909 18.6671 18.3417 18.3596 18.3417C18.0522 18.3417 17.803 18.5909 17.803 18.8983C17.803 19.2057 18.0522 19.455 18.3596 19.455Z" fill="#182AA1"/>
<path d="M16.3989 21.0361C16.7064 21.0361 16.9556 20.7869 16.9556 20.4795C16.9556 20.1721 16.7064 19.9229 16.3989 19.9229C16.0915 19.9229 15.8423 20.1721 15.8423 20.4795C15.8423 20.7869 16.0915 21.0361 16.3989 21.0361Z" fill="#182AA1"/>
<path d="M19.8916 17.4353C20.199 17.4353 20.4483 17.1861 20.4483 16.8787C20.4483 16.5712 20.199 16.322 19.8916 16.322C19.5842 16.322 19.335 16.5712 19.335 16.8787C19.335 17.1861 19.5842 17.4353 19.8916 17.4353Z" fill="#182AA1"/>
<path d="M14.0642 21.9525C14.3716 21.9525 14.6209 21.7033 14.6209 21.3959C14.6209 21.0885 14.3716 20.8392 14.0642 20.8392C13.7568 20.8392 13.5076 21.0885 13.5076 21.3959C13.5076 21.7033 13.7568 21.9525 14.0642 21.9525Z" fill="#1728A1"/>
<path d="M15.9753 14.8786C16.2828 14.8786 16.532 14.6293 16.532 14.3219C16.532 14.0145 16.2828 13.7653 15.9753 13.7653C15.6679 13.7653 15.4187 14.0145 15.4187 14.3219C15.4187 14.6293 15.6679 14.8786 15.9753 14.8786Z" fill="#BBC2F1"/>
<path d="M17.9558 16.1989C18.2632 16.1989 18.5125 15.9496 18.5125 15.6422C18.5125 15.3348 18.2632 15.0856 17.9558 15.0856C17.6484 15.0856 17.3992 15.3348 17.3992 15.6422C17.3992 15.9496 17.6484 16.1989 17.9558 16.1989Z" fill="#737FD7"/>
<path d="M16.3547 12.4649C16.6622 12.4649 16.9114 12.2156 16.9114 11.9082C16.9114 11.6008 16.6622 11.3516 16.3547 11.3516C16.0473 11.3516 15.7981 11.6008 15.7981 11.9082C15.7981 12.2156 16.0473 12.4649 16.3547 12.4649Z" fill="#BBC2F1"/>
<path d="M18.6502 13.785C18.9576 13.785 19.2068 13.5358 19.2068 13.2284C19.2068 12.921 18.9576 12.6718 18.6502 12.6718C18.3427 12.6718 18.0935 12.921 18.0935 13.2284C18.0935 13.5358 18.3427 13.785 18.6502 13.785Z" fill="#737FD7"/>
<path d="M16.4334 18.1447C16.7408 18.1447 16.99 17.8954 16.99 17.588C16.99 17.2806 16.7408 17.0314 16.4334 17.0314C16.1259 17.0314 15.8767 17.2806 15.8767 17.588C15.8767 17.8954 16.1259 18.1447 16.4334 18.1447Z" fill="#737FD7"/>
<path d="M14.3645 16.6914C14.6719 16.6914 14.9212 16.4422 14.9212 16.1348C14.9212 15.8273 14.6719 15.5781 14.3645 15.5781C14.0571 15.5781 13.8079 15.8273 13.8079 16.1348C13.8079 16.4422 14.0571 16.6914 14.3645 16.6914Z" fill="#BBC2F1"/>
<path d="M12.0049 17.3859C12.3123 17.3859 12.5615 17.1367 12.5615 16.8292C12.5615 16.5218 12.3123 16.2726 12.0049 16.2726C11.6975 16.2726 11.4482 16.5218 11.4482 16.8292C11.4482 17.1367 11.6975 17.3859 12.0049 17.3859Z" fill="#BBC2F1"/>
<path d="M14.2759 19.4155C14.5833 19.4155 14.8325 19.1663 14.8325 18.8589C14.8325 18.5515 14.5833 18.3022 14.2759 18.3022C13.9685 18.3022 13.7192 18.5515 13.7192 18.8589C13.7192 19.1663 13.9685 19.4155 14.2759 19.4155Z" fill="#737FD7"/>
<path d="M11.7634 19.849C12.0709 19.849 12.3201 19.5998 12.3201 19.2924C12.3201 18.9849 12.0709 18.7357 11.7634 18.7357C11.456 18.7357 11.2068 18.9849 11.2068 19.2924C11.2068 19.5998 11.456 19.849 11.7634 19.849Z" fill="#737FD7"/>
<path d="M9.3252 19.3859C9.63263 19.3859 9.88185 19.1367 9.88185 18.8292C9.88185 18.5218 9.63263 18.2726 9.3252 18.2726C9.01777 18.2726 8.76855 18.5218 8.76855 18.8292C8.76855 19.1367 9.01777 19.3859 9.3252 19.3859Z" fill="#737FD7"/>
<path d="M9.67481 16.8934C9.98224 16.8934 10.2315 16.6442 10.2315 16.3368C10.2315 16.0294 9.98224 15.7802 9.67481 15.7802C9.36738 15.7802 9.11816 16.0294 9.11816 16.3368C9.11816 16.6442 9.36738 16.8934 9.67481 16.8934Z" fill="#BBC2F1"/>
<path d="M11.5271 22.189C11.8345 22.189 12.0838 21.9398 12.0838 21.6323C12.0838 21.3249 11.8345 21.0757 11.5271 21.0757C11.2197 21.0757 10.9705 21.3249 10.9705 21.6323C10.9705 21.9398 11.2197 22.189 11.5271 22.189Z" fill="#1728A1"/>
<path d="M9.06885 21.7899C9.37628 21.7899 9.6255 21.5407 9.6255 21.2333C9.6255 20.9259 9.37628 20.6766 9.06885 20.6766C8.76143 20.6766 8.51221 20.9259 8.51221 21.2333C8.51221 21.5407 8.76143 21.7899 9.06885 21.7899Z" fill="#1728A1"/>
<path d="M6.8523 20.6815C7.15973 20.6815 7.40895 20.4323 7.40895 20.1249C7.40895 19.8175 7.15973 19.5682 6.8523 19.5682C6.54487 19.5682 6.29565 19.8175 6.29565 20.1249C6.29565 20.4323 6.54487 20.6815 6.8523 20.6815Z" fill="#1728A1"/>
<path d="M7.15748 18.115C7.46491 18.115 7.71413 17.8658 7.71413 17.5584C7.71413 17.2509 7.46491 17.0017 7.15748 17.0017C6.85005 17.0017 6.60083 17.2509 6.60083 17.5584C6.60083 17.8658 6.85005 18.115 7.15748 18.115Z" fill="#737FD7"/>
<path d="M7.8523 15.2135C8.15973 15.2135 8.40895 14.9643 8.40895 14.6569C8.40895 14.3494 8.15973 14.1002 7.8523 14.1002C7.54487 14.1002 7.29565 14.3494 7.29565 14.6569C7.29565 14.9643 7.54487 15.2135 7.8523 15.2135Z" fill="#BBC2F1"/>
<path d="M7.20704 12.923C7.51447 12.923 7.76369 12.6738 7.76369 12.3663C7.76369 12.0589 7.51447 11.8097 7.20704 11.8097C6.89961 11.8097 6.65039 12.0589 6.65039 12.3663C6.65039 12.6738 6.89961 12.923 7.20704 12.923Z" fill="#BBC2F1"/>
<path d="M7.92115 10.4697C8.22858 10.4697 8.4778 10.2205 8.4778 9.91309C8.4778 9.60567 8.22858 9.35645 7.92115 9.35645C7.61372 9.35645 7.3645 9.60567 7.3645 9.91309C7.3645 10.2205 7.61372 10.4697 7.92115 10.4697Z" fill="#BBC2F1"/>
<path d="M10.3696 8.6078C10.6771 8.6078 10.9263 8.35858 10.9263 8.05115C10.9263 7.74373 10.6771 7.49451 10.3696 7.49451C10.0622 7.49451 9.81299 7.74373 9.81299 8.05115C9.81299 8.35858 10.0622 8.6078 10.3696 8.6078Z" fill="#BBC2F1"/>
<path d="M10.8718 3.63734C11.1793 3.63734 11.4285 3.38812 11.4285 3.0807C11.4285 2.77327 11.1793 2.52405 10.8718 2.52405C10.5644 2.52405 10.3152 2.77327 10.3152 3.0807C10.3152 3.38812 10.5644 3.63734 10.8718 3.63734Z" fill="#182AA1"/>
<path d="M15.3892 10.0116C15.6966 10.0116 15.9458 9.76239 15.9458 9.45496C15.9458 9.14754 15.6966 8.89832 15.3892 8.89832C15.0817 8.89832 14.8325 9.14754 14.8325 9.45496C14.8325 9.76239 15.0817 10.0116 15.3892 10.0116Z" fill="#BBC2F1"/>
<path d="M13.394 8.70131C13.7015 8.70131 13.9507 8.45209 13.9507 8.14466C13.9507 7.83723 13.7015 7.58801 13.394 7.58801C13.0866 7.58801 12.8374 7.83723 12.8374 8.14466C12.8374 8.45209 13.0866 8.70131 13.394 8.70131Z" fill="#BBC2F1"/>
<path d="M13.335 11.4107C13.6424 11.4107 13.8916 11.1614 13.8916 10.854C13.8916 10.5466 13.6424 10.2974 13.335 10.2974C13.0275 10.2974 12.7783 10.5466 12.7783 10.854C12.7783 11.1614 13.0275 11.4107 13.335 11.4107Z" fill="#DBDEF1"/>
<path d="M13.8325 13.4993C14.14 13.4993 14.3892 13.2501 14.3892 12.9426C14.3892 12.6352 14.14 12.386 13.8325 12.386C13.5251 12.386 13.2759 12.6352 13.2759 12.9426C13.2759 13.2501 13.5251 13.4993 13.8325 13.4993Z" fill="#DBDEF1"/>
<path d="M12.1428 14.9968C12.4503 14.9968 12.6995 14.7476 12.6995 14.4402C12.6995 14.1328 12.4503 13.8835 12.1428 13.8835C11.8354 13.8835 11.5862 14.1328 11.5862 14.4402C11.5862 14.7476 11.8354 14.9968 12.1428 14.9968Z" fill="#DBDEF1"/>
<path d="M10.1133 14.1989C10.4207 14.1989 10.6699 13.9496 10.6699 13.6422C10.6699 13.3348 10.4207 13.0856 10.1133 13.0856C9.80586 13.0856 9.55664 13.3348 9.55664 13.6422C9.55664 13.9496 9.80586 14.1989 10.1133 14.1989Z" fill="#DBDEF1"/>
<path d="M9.77833 11.8837C10.0858 11.8837 10.335 11.6345 10.335 11.327C10.335 11.0196 10.0858 10.7704 9.77833 10.7704C9.4709 10.7704 9.22168 11.0196 9.22168 11.327C9.22168 11.6345 9.4709 11.8837 9.77833 11.8837Z" fill="#DBDEF1"/>
<path d="M11.3892 10.6767C11.6966 10.6767 11.9458 10.4274 11.9458 10.12C11.9458 9.81257 11.6966 9.56335 11.3892 9.56335C11.0817 9.56335 10.8325 9.81257 10.8325 10.12C10.8325 10.4274 11.0817 10.6767 11.3892 10.6767Z" fill="#DBDEF1"/>
<path d="M17.4878 8.86391C17.7952 8.86391 18.0444 8.61469 18.0444 8.30726C18.0444 7.99983 17.7952 7.75061 17.4878 7.75061C17.1804 7.75061 16.9312 7.99983 16.9312 8.30726C16.9312 8.61469 17.1804 8.86391 17.4878 8.86391Z" fill="#737FD7"/>
<path d="M18.6502 11.2924C18.9576 11.2924 19.2068 11.0432 19.2068 10.7357C19.2068 10.4283 18.9576 10.1791 18.6502 10.1791C18.3427 10.1791 18.0935 10.4283 18.0935 10.7357C18.0935 11.0432 18.3427 11.2924 18.6502 11.2924Z" fill="#737FD7"/>
<path d="M15.6895 7.05104C15.9969 7.05104 16.2461 6.80182 16.2461 6.49439C16.2461 6.18696 15.9969 5.93774 15.6895 5.93774C15.382 5.93774 15.1328 6.18696 15.1328 6.49439C15.1328 6.80182 15.382 7.05104 15.6895 7.05104Z" fill="#737FD7"/>
<path d="M13.335 5.98219C13.6424 5.98219 13.8916 5.73297 13.8916 5.42554C13.8916 5.11812 13.6424 4.8689 13.335 4.8689C13.0275 4.8689 12.7783 5.11812 12.7783 5.42554C12.7783 5.73297 13.0275 5.98219 13.335 5.98219Z" fill="#737FD7"/>
<path d="M13.335 3.61769C13.6424 3.61769 13.8916 3.36847 13.8916 3.06104C13.8916 2.75361 13.6424 2.50439 13.335 2.50439C13.0275 2.50439 12.7783 2.75361 12.7783 3.06104C12.7783 3.36847 13.0275 3.61769 13.335 3.61769Z" fill="#182AA1"/>
<path d="M10.5466 6.03139C10.8541 6.03139 11.1033 5.78217 11.1033 5.47474C11.1033 5.16731 10.8541 4.91809 10.5466 4.91809C10.2392 4.91809 9.98999 5.16731 9.98999 5.47474C9.98999 5.78217 10.2392 6.03139 10.5466 6.03139Z" fill="#737FD7"/>
<path d="M8.01466 4.2925C8.32208 4.2925 8.5713 4.04328 8.5713 3.73585C8.5713 3.42842 8.32208 3.1792 8.01466 3.1792C7.70723 3.1792 7.45801 3.42842 7.45801 3.73585C7.45801 4.04328 7.70723 4.2925 8.01466 4.2925Z" fill="#1728A1"/>
<path d="M7.78345 7.1841C8.09088 7.1841 8.3401 6.93488 8.3401 6.62745C8.3401 6.32002 8.09088 6.0708 7.78345 6.0708C7.47603 6.0708 7.22681 6.32002 7.22681 6.62745C7.22681 6.93488 7.47603 7.1841 7.78345 7.1841Z" fill="#737FD7"/>
<path d="M5.98023 5.61269C6.28766 5.61269 6.53688 5.36347 6.53688 5.05604C6.53688 4.74861 6.28766 4.49939 5.98023 4.49939C5.6728 4.49939 5.42358 4.74861 5.42358 5.05604C5.42358 5.36347 5.6728 5.61269 5.98023 5.61269Z" fill="#1728A1"/>
<path d="M4.18726 7.43043C4.49469 7.43043 4.74391 7.18121 4.74391 6.87379C4.74391 6.56636 4.49469 6.31714 4.18726 6.31714C3.87983 6.31714 3.63062 6.56636 3.63062 6.87379C3.63062 7.18121 3.87983 7.43043 4.18726 7.43043Z" fill="#1728A1"/>
<path d="M6.00001 8.92787C6.30744 8.92787 6.55666 8.67865 6.55666 8.37122C6.55666 8.06379 6.30744 7.81458 6.00001 7.81458C5.69258 7.81458 5.44336 8.06379 5.44336 8.37122C5.44336 8.67865 5.69258 8.92787 6.00001 8.92787Z" fill="#737FD7"/>
<path d="M5.03468 11.1939C5.3421 11.1939 5.59132 10.9446 5.59132 10.6372C5.59132 10.3298 5.3421 10.0806 5.03468 10.0806C4.72725 10.0806 4.47803 10.3298 4.47803 10.6372C4.47803 10.9446 4.72725 11.1939 5.03468 11.1939Z" fill="#737FD7"/>
<path d="M3.04932 9.71608C3.35675 9.71608 3.60597 9.46686 3.60597 9.15943C3.60597 8.852 3.35675 8.60278 3.04932 8.60278C2.7419 8.60278 2.49268 8.852 2.49268 9.15943C2.49268 9.46686 2.7419 9.71608 3.04932 9.71608Z" fill="#1728A1"/>
<path d="M4.86207 13.6817C5.1695 13.6817 5.41872 13.4324 5.41872 13.125C5.41872 12.8176 5.1695 12.5684 4.86207 12.5684C4.55464 12.5684 4.30542 12.8176 4.30542 13.125C4.30542 13.4324 4.55464 13.6817 4.86207 13.6817Z" fill="#737FD7"/>
<path d="M5.66016 16.1102C5.96759 16.1102 6.21681 15.861 6.21681 15.5536C6.21681 15.2462 5.96759 14.9969 5.66016 14.9969C5.35274 14.9969 5.10352 15.2462 5.10352 15.5536C5.10352 15.861 5.35274 16.1102 5.66016 16.1102Z" fill="#737FD7"/>
<path d="M2.55665 12.1496C2.86408 12.1496 3.1133 11.9003 3.1133 11.5929C3.1133 11.2855 2.86408 11.0363 2.55665 11.0363C2.24922 11.0363 2 11.2855 2 11.5929C2 11.9003 2.24922 12.1496 2.55665 12.1496Z" fill="#1728A1"/>
<path d="M2.65015 14.6275C2.95758 14.6275 3.2068 14.3782 3.2068 14.0708C3.2068 13.7634 2.95758 13.5142 2.65015 13.5142C2.34273 13.5142 2.09351 13.7634 2.09351 14.0708C2.09351 14.3782 2.34273 14.6275 2.65015 14.6275Z" fill="#1728A1"/>
<path d="M3.46802 17.0215C3.77545 17.0215 4.02467 16.7723 4.02467 16.4649C4.02467 16.1574 3.77545 15.9082 3.46802 15.9082C3.1606 15.9082 2.91138 16.1574 2.91138 16.4649C2.91138 16.7723 3.1606 17.0215 3.46802 17.0215Z" fill="#1728A1"/>
<path d="M4.87696 19.1299C5.18439 19.1299 5.43361 18.8807 5.43361 18.5732C5.43361 18.2658 5.18439 18.0166 4.87696 18.0166C4.56953 18.0166 4.32031 18.2658 4.32031 18.5732C4.32031 18.8807 4.56953 19.1299 4.87696 19.1299Z" fill="#1728A1"/>
<path d="M14.953 18.1253H13.3274L12.3027 15.209H7.32247L6.31262 18.1253H4.68701L8.71162 7.09082H10.9333L14.953 18.1253ZM7.85941 13.7115H11.7855L9.81507 8.22382L7.85941 13.7115Z" fill="#182AA1"/>
<path d="M16.3964 7.26838C16.5885 7.08119 16.8249 6.98267 17.0959 6.98267C17.3668 6.98267 17.6032 7.07626 17.7954 7.26838C17.9875 7.4605 18.086 7.69202 18.086 7.97774C18.086 8.26345 17.9875 8.4999 17.7954 8.68709C17.6032 8.87428 17.3668 8.97281 17.0959 8.97281C16.8249 8.97281 16.5885 8.87921 16.3964 8.68709C16.2042 8.4999 16.1057 8.26345 16.1057 7.97774C16.1057 7.69202 16.2042 7.45557 16.3964 7.26838ZM16.3717 10.1649H17.8397V18.1255H16.3717V10.1649Z" fill="#182AA1"/>
</svg>
