<svg width="20" height="20" viewBox="0 0 20 20" fill="none" xmlns="http://www.w3.org/2000/svg">
<path d="M9.99996 11.4582C10.8054 11.4582 11.4583 10.8053 11.4583 9.99984C11.4583 9.19442 10.8054 8.5415 9.99996 8.5415C9.19454 8.5415 8.54163 9.19442 8.54163 9.99984C8.54163 10.8053 9.19454 11.4582 9.99996 11.4582Z" fill="#181D27"/>
<path d="M15.8333 11.4582C16.6387 11.4582 17.2917 10.8053 17.2917 9.99984C17.2917 9.19442 16.6387 8.5415 15.8333 8.5415C15.0279 8.5415 14.375 9.19442 14.375 9.99984C14.375 10.8053 15.0279 11.4582 15.8333 11.4582Z" fill="#181D27"/>
<path d="M4.16665 11.4582C4.97206 11.4582 5.62498 10.8053 5.62498 9.99984C5.62498 9.19442 4.97206 8.5415 4.16665 8.5415C3.36123 8.5415 2.70831 9.19442 2.70831 9.99984C2.70831 10.8053 3.36123 11.4582 4.16665 11.4582Z" fill="#181D27"/>
</svg>
