<svg width="20" height="20" viewBox="0 0 20 20" fill="none" xmlns="http://www.w3.org/2000/svg">
<path d="M17.5 9.99979C17.279 9.99979 17.067 10.0876 16.9108 10.2439C16.7545 10.4001 16.6667 10.6121 16.6667 10.8331V15.8331C16.6667 16.0541 16.5789 16.2661 16.4226 16.4224C16.2663 16.5787 16.0544 16.6665 15.8334 16.6665H4.16669C3.94567 16.6665 3.73371 16.5787 3.57743 16.4224C3.42115 16.2661 3.33335 16.0541 3.33335 15.8331V4.16645C3.33335 3.94544 3.42115 3.73348 3.57743 3.5772C3.73371 3.42092 3.94567 3.33312 4.16669 3.33312H9.16669C9.3877 3.33312 9.59966 3.24532 9.75594 3.08904C9.91222 2.93276 10 2.7208 10 2.49979C10 2.27877 9.91222 2.06681 9.75594 1.91053C9.59966 1.75425 9.3877 1.66645 9.16669 1.66645H4.16669C3.50365 1.66645 2.86776 1.92985 2.39892 2.39869C1.93008 2.86753 1.66669 3.50341 1.66669 4.16645V15.8331C1.66669 16.4962 1.93008 17.132 2.39892 17.6009C2.86776 18.0697 3.50365 18.3331 4.16669 18.3331H15.8334C16.4964 18.3331 17.1323 18.0697 17.6011 17.6009C18.07 17.132 18.3334 16.4962 18.3334 15.8331V10.8331C18.3334 10.6121 18.2456 10.4001 18.0893 10.2439C17.933 10.0876 17.721 9.99979 17.5 9.99979ZM5.00002 10.6331V14.1665C5.00002 14.3875 5.08782 14.5994 5.2441 14.7557C5.40038 14.912 5.61234 14.9998 5.83335 14.9998H9.36669C9.47636 15.0004 9.58508 14.9794 9.68661 14.9379C9.78814 14.8965 9.88049 14.8354 9.95835 14.7581L15.725 8.98312L18.0917 6.66645C18.1698 6.58898 18.2318 6.49682 18.2741 6.39527C18.3164 6.29372 18.3382 6.1848 18.3382 6.07479C18.3382 5.96478 18.3164 5.85586 18.2741 5.75431C18.2318 5.65276 18.1698 5.56059 18.0917 5.48312L14.5584 1.90812C14.4809 1.83001 14.3887 1.76802 14.2872 1.72571C14.1856 1.6834 14.0767 1.66162 13.9667 1.66162C13.8567 1.66162 13.7478 1.6834 13.6462 1.72571C13.5447 1.76802 13.4525 1.83001 13.375 1.90812L11.025 4.26645L5.24169 10.0415C5.16445 10.1193 5.10335 10.2117 5.06188 10.3132C5.02041 10.4147 4.99939 10.5234 5.00002 10.6331ZM13.9667 3.67479L16.325 6.03312L15.1417 7.21645L12.7834 4.85812L13.9667 3.67479ZM6.66669 10.9748L11.6084 6.03312L13.9667 8.39145L9.02502 13.3331H6.66669V10.9748Z" fill="#535862"/>
</svg>
