<?xml version="1.0" encoding="utf-8"?>
<!-- Generator: Adobe Illustrator 24.1.0, SVG Export Plug-In . SVG Version: 6.00 Build 0)  -->
<svg version="1.1" id="Capa_1" xmlns="http://www.w3.org/2000/svg" xmlns:xlink="http://www.w3.org/1999/xlink" x="0px" y="0px"
	 viewBox="0 0 40 40" style="enable-background:new 0 0 40 40;" xml:space="preserve">
<g id="Capa_2_1_">
	<g id="Capa_1-2">
		<path d="M29.2,19.4h-8.6v-8.6c0.1-0.4-0.2-0.7-0.5-0.8s-0.7,0.2-0.8,0.5c0,0.1,0,0.1,0,0.2v8.6h-8.6c-0.4-0.1-0.7,0.2-0.8,0.5
			s0.2,0.7,0.5,0.8c0.1,0,0.1,0,0.2,0h8.6v8.6c-0.1,0.4,0.2,0.7,0.5,0.8c0.4,0.1,0.7-0.2,0.8-0.5c0-0.1,0-0.1,0-0.2v-8.6h8.6
			c0.4,0.1,0.7-0.2,0.8-0.5c0.1-0.4-0.2-0.7-0.5-0.8C29.4,19.3,29.3,19.3,29.2,19.4z"/>
	</g>
</g>
</svg>
