<svg width="20" height="20" viewBox="0 0 20 20" fill="none" xmlns="http://www.w3.org/2000/svg">
<path d="M16.9417 3.0584C16.784 2.90187 16.5863 2.79183 16.3702 2.74038C16.1541 2.68892 15.928 2.69804 15.7167 2.76673L3.52502 6.8334C3.29891 6.90505 3.09911 7.04209 2.95084 7.22723C2.80258 7.41236 2.7125 7.63728 2.692 7.87358C2.67149 8.10988 2.72146 8.34696 2.83562 8.55487C2.94977 8.76278 3.12297 8.9322 3.33336 9.04173L8.39169 11.5417L10.8917 16.6167C10.9922 16.8154 11.1459 16.9822 11.3358 17.0984C11.5256 17.2147 11.7441 17.2758 11.9667 17.2751H12.05C12.2884 17.2575 12.5161 17.1686 12.7033 17.02C12.8906 16.8714 13.0288 16.6699 13.1 16.4417L17.225 4.2834C17.2987 4.07334 17.3112 3.84669 17.261 3.62981C17.2108 3.41294 17.1001 3.21478 16.9417 3.0584ZM4.04169 7.9834L14.6834 4.4334L8.77502 10.3417L4.04169 7.9834ZM12.025 15.9584L9.65836 11.2251L15.5667 5.31673L12.025 15.9584Z" fill="#535862"/>
</svg>
