<svg width="20" height="20" viewBox="0 0 20 20" fill="none" xmlns="http://www.w3.org/2000/svg">
<path d="M2.91669 3.12508C2.91669 3.06983 2.93864 3.01684 2.97771 2.97777C3.01678 2.9387 3.06977 2.91675 3.12502 2.91675H14.375C14.4303 2.91675 14.4833 2.9387 14.5223 2.97777C14.5614 3.01684 14.5834 3.06983 14.5834 3.12508V11.4584C14.5834 11.6242 14.6492 11.7831 14.7664 11.9004C14.8836 12.0176 15.0426 12.0834 15.2084 12.0834C15.3741 12.0834 15.5331 12.0176 15.6503 11.9004C15.7675 11.7831 15.8334 11.6242 15.8334 11.4584V3.12508C15.8334 2.73831 15.6797 2.36737 15.4062 2.09388C15.1327 1.82039 14.7618 1.66675 14.375 1.66675H3.12502C2.73825 1.66675 2.36731 1.82039 2.09382 2.09388C1.82033 2.36737 1.66669 2.73831 1.66669 3.12508V16.8751C1.66669 17.6801 2.32002 18.3334 3.12502 18.3334H8.95835C9.12411 18.3334 9.28308 18.2676 9.40029 18.1504C9.51751 18.0331 9.58335 17.8742 9.58335 17.7084C9.58335 17.5427 9.51751 17.3837 9.40029 17.2665C9.28308 17.1493 9.12411 17.0834 8.95835 17.0834H3.12502C3.06977 17.0834 3.01678 17.0615 2.97771 17.0224C2.93864 16.9833 2.91669 16.9303 2.91669 16.8751V3.12508Z" fill="#333333"/>
<path d="M5.20831 5.83325C5.04255 5.83325 4.88358 5.8991 4.76637 6.01631C4.64916 6.13352 4.58331 6.29249 4.58331 6.45825C4.58331 6.62401 4.64916 6.78298 4.76637 6.90019C4.88358 7.0174 5.04255 7.08325 5.20831 7.08325H12.2916C12.4574 7.08325 12.6164 7.0174 12.7336 6.90019C12.8508 6.78298 12.9166 6.62401 12.9166 6.45825C12.9166 6.29249 12.8508 6.13352 12.7336 6.01631C12.6164 5.8991 12.4574 5.83325 12.2916 5.83325H5.20831ZM4.58331 9.79159C4.58331 9.62583 4.64916 9.46685 4.76637 9.34964C4.88358 9.23243 5.04255 9.16659 5.20831 9.16659H8.95831C9.12407 9.16659 9.28304 9.23243 9.40025 9.34964C9.51746 9.46685 9.58331 9.62583 9.58331 9.79159C9.58331 9.95735 9.51746 10.1163 9.40025 10.2335C9.28304 10.3507 9.12407 10.4166 8.95831 10.4166H5.20831C5.04255 10.4166 4.88358 10.3507 4.76637 10.2335C4.64916 10.1163 4.58331 9.95735 4.58331 9.79159ZM18.15 13.5666C18.2114 13.5094 18.2606 13.4404 18.2948 13.3637C18.329 13.287 18.3473 13.2043 18.3488 13.1204C18.3503 13.0364 18.3348 12.9531 18.3034 12.8753C18.272 12.7974 18.2252 12.7267 18.1658 12.6674C18.1065 12.608 18.0358 12.5613 17.958 12.5298C17.8802 12.4984 17.7968 12.4829 17.7129 12.4844C17.629 12.4859 17.5462 12.5043 17.4695 12.5384C17.3929 12.5726 17.3239 12.6218 17.2666 12.6833L13.125 16.8249L11.4833 15.1833C11.4261 15.1218 11.3571 15.0726 11.2804 15.0384C11.2038 15.0043 11.121 14.9859 11.0371 14.9844C10.9532 14.9829 10.8698 14.9984 10.792 15.0298C10.7142 15.0613 10.6435 15.108 10.5841 15.1674C10.5248 15.2267 10.478 15.2974 10.4465 15.3753C10.4151 15.4531 10.3997 15.5364 10.4012 15.6204C10.4026 15.7043 10.421 15.787 10.4552 15.8637C10.4893 15.9404 10.5386 16.0094 10.6 16.0666L12.6833 18.1499C12.8005 18.267 12.9594 18.3327 13.125 18.3327C13.2906 18.3327 13.4495 18.267 13.5666 18.1499L18.15 13.5666Z" fill="#333333"/>
</svg>
