<svg width="20" height="20" viewBox="0 0 20 20" fill="none" xmlns="http://www.w3.org/2000/svg">
<path d="M7.5 6.875H8.75V10.625H7.5V6.875ZM4.375 8.125H5.625V10.625H4.375V8.125ZM1.25 4.375H2.5V10.625H1.25V4.375Z" fill="#333333"/>
<path d="M18.75 17.8663L14.03 13.1463C15.0614 11.9136 15.6261 10.3572 15.625 8.75C15.625 4.95937 12.5406 1.875 8.75 1.875C7.24813 1.875 5.82188 2.35 4.62438 3.25L5.37438 4.25C6.3465 3.51635 7.53212 3.12122 8.75 3.125C11.8519 3.125 14.375 5.64813 14.375 8.75C14.375 11.8519 11.8519 14.375 8.75 14.375C7.87615 14.3784 7.0137 14.1766 6.23209 13.7858C5.45049 13.395 4.77157 12.8261 4.25 12.125L3.25 12.8762C3.8878 13.7328 4.71768 14.4277 5.67293 14.9051C6.62817 15.3825 7.68211 15.6291 8.75 15.625C10.4206 15.625 11.9538 15.025 13.1463 14.03L17.8663 18.75L18.75 17.8663Z" fill="#333333"/>
</svg>
