<svg width="20" height="20" viewBox="0 0 20 20" fill="none" xmlns="http://www.w3.org/2000/svg">
<path fill-rule="evenodd" clip-rule="evenodd" d="M11.1142 1.04175H13.0525C14.0484 1.04175 14.8409 1.04175 15.4759 1.10175C16.1267 1.16425 16.6775 1.29341 17.1675 1.59425C17.6723 1.90374 18.0967 2.32838 18.4059 2.83341C18.7059 3.32341 18.8359 3.87425 18.8975 4.52508C18.9584 5.16008 18.9584 5.95258 18.9584 6.94841V7.62758C18.9584 8.33591 18.9584 8.90008 18.9267 9.35758C18.895 9.82508 18.8284 10.2267 18.6725 10.6026C18.4842 11.0576 18.208 11.4711 17.8598 11.8194C17.5117 12.1677 17.0983 12.444 16.6434 12.6326C16.3267 12.7634 15.9909 12.8317 15.6092 12.8692C15.6042 12.9859 15.5986 13.0965 15.5925 13.2009C15.5584 13.6976 15.4875 14.1209 15.3234 14.5159C14.9216 15.4855 14.1513 16.2558 13.1817 16.6576C12.6842 16.8642 12.1359 16.9242 11.4459 16.9467C11.0742 16.9584 10.8375 16.9667 10.6567 16.9884C10.4867 17.0092 10.4225 17.0367 10.3875 17.0576C10.3492 17.0801 10.2959 17.1217 10.2042 17.2492C10.1042 17.3867 9.99085 17.5767 9.81252 17.8792L9.59585 18.2442C9.03169 19.1976 7.63502 19.1976 7.07085 18.2442L6.85419 17.8792C6.67585 17.5767 6.56252 17.3867 6.46252 17.2492C6.37085 17.1217 6.31752 17.0801 6.27919 17.0576C6.24419 17.0367 6.18002 17.0092 6.01002 16.9884C5.74762 16.9641 5.48436 16.9502 5.22085 16.9467C4.53085 16.9242 3.98252 16.8634 3.48502 16.6576C2.51544 16.2558 1.74509 15.4855 1.34335 14.5159C1.17919 14.1209 1.10835 13.6976 1.07502 13.2009C1.04169 12.7142 1.04169 12.1142 1.04169 11.3567V10.6351C1.04169 9.57175 1.04169 8.72841 1.10585 8.05341C1.17169 7.36175 1.30919 6.78175 1.62502 6.26591C1.95128 5.73306 2.39904 5.28501 2.93169 4.95841C3.44752 4.64175 4.02752 4.50508 4.71919 4.43925C4.89419 4.42258 5.08169 4.4098 5.28169 4.40091C5.34835 3.80091 5.48169 3.28925 5.76085 2.83258C6.07035 2.32776 6.49499 1.9034 7.00002 1.59425C7.49002 1.29425 8.04085 1.16425 8.69169 1.10258C9.32669 1.04175 10.1192 1.04175 11.1142 1.04175ZM6.54335 4.37591L7.30002 4.37508H9.36502C10.4284 4.37508 11.2717 4.37508 11.9467 4.43925C12.6384 4.50508 13.2184 4.64258 13.7342 4.95841C14.2667 5.28478 14.7145 5.73253 15.0409 6.26508C15.3575 6.78091 15.4942 7.36091 15.56 8.05258C15.6242 8.72758 15.6242 9.57091 15.6242 10.6342V11.6084C15.8093 11.5888 15.9909 11.5446 16.1642 11.4767C16.4676 11.3511 16.7433 11.1669 16.9755 10.9347C17.2077 10.7025 17.3919 10.4268 17.5175 10.1234C17.5992 9.92508 17.6509 9.67591 17.6792 9.27175C17.7075 8.86175 17.7075 8.34091 17.7075 7.60425V6.97925C17.7075 5.94425 17.7075 5.21258 17.6525 4.64258C17.5992 4.08341 17.4992 3.74675 17.3392 3.48591C17.1331 3.1497 16.8504 2.867 16.5142 2.66091C16.2525 2.50008 15.9159 2.40008 15.3559 2.34675C14.7875 2.29258 14.055 2.29175 13.02 2.29175H11.145C10.11 2.29175 9.37752 2.29175 8.80835 2.34675C8.24919 2.40008 7.91252 2.50008 7.65085 2.66008C7.31463 2.86616 7.03194 3.14886 6.82585 3.48508C6.69252 3.70425 6.60085 3.97175 6.54335 4.37591ZM4.83669 5.68508C4.23669 5.74175 3.87002 5.85008 3.58419 6.02508C3.21975 6.2484 2.91334 6.55481 2.69002 6.91925C2.51502 7.20508 2.40669 7.57175 2.34919 8.17175C2.29085 8.78008 2.29085 9.56425 2.29085 10.6676V11.3342C2.29085 12.1192 2.29085 12.6767 2.32085 13.1159C2.35085 13.5492 2.40669 13.8201 2.49669 14.0376C2.63289 14.3663 2.83252 14.6649 3.08418 14.9164C3.33584 15.1679 3.63458 15.3674 3.96335 15.5034C4.24085 15.6184 4.60002 15.6759 5.26002 15.6967L5.28585 15.6976C5.62419 15.7084 5.91752 15.7184 6.16085 15.7476C6.41919 15.7792 6.67335 15.8392 6.91419 15.9809C7.15169 16.1226 7.32335 16.3084 7.47252 16.5142C7.61169 16.7059 7.75419 16.9467 7.91669 17.2201L8.14585 17.6076C8.16498 17.6397 8.1924 17.6661 8.22525 17.684C8.25809 17.7019 8.29514 17.7106 8.33252 17.7092C8.3699 17.7106 8.40695 17.7019 8.43979 17.684C8.47264 17.6661 8.50006 17.6397 8.51919 17.6076L8.74835 17.2201C8.91002 16.9467 9.05335 16.7051 9.19169 16.5142C9.33783 16.2988 9.52816 16.117 9.75002 15.9809C9.99169 15.8392 10.2459 15.7792 10.505 15.7476C10.7956 15.7191 11.0872 15.7025 11.3792 15.6976H11.4042C12.065 15.6759 12.4234 15.6184 12.7025 15.5034C13.0312 15.3672 13.3298 15.1676 13.5814 14.9159C13.8329 14.6643 14.0323 14.3655 14.1684 14.0367C14.2584 13.8201 14.3142 13.5484 14.3434 13.1159C14.3742 12.6767 14.3742 12.1192 14.3742 11.3342V10.6676C14.3742 9.56425 14.3742 8.78091 14.3159 8.17175C14.2584 7.57175 14.15 7.20508 13.975 6.91925C13.7517 6.55481 13.4453 6.2484 13.0809 6.02508C12.795 5.85008 12.4284 5.74175 11.8284 5.68425C11.22 5.62591 10.4359 5.62591 9.33252 5.62591H7.33335C6.23002 5.62591 5.44669 5.62591 4.83752 5.68425" fill="#333333"/>
<path d="M6.24998 10.8333C6.24998 11.0543 6.16218 11.2663 6.0059 11.4226C5.84962 11.5789 5.63766 11.6667 5.41665 11.6667C5.19563 11.6667 4.98367 11.5789 4.82739 11.4226C4.67111 11.2663 4.58331 11.0543 4.58331 10.8333C4.58331 10.6123 4.67111 10.4004 4.82739 10.2441C4.98367 10.0878 5.19563 10 5.41665 10C5.63766 10 5.84962 10.0878 6.0059 10.2441C6.16218 10.4004 6.24998 10.6123 6.24998 10.8333ZM9.16665 10.8333C9.16665 11.0543 9.07885 11.2663 8.92257 11.4226C8.76629 11.5789 8.55433 11.6667 8.33331 11.6667C8.1123 11.6667 7.90034 11.5789 7.74406 11.4226C7.58778 11.2663 7.49998 11.0543 7.49998 10.8333C7.49998 10.6123 7.58778 10.4004 7.74406 10.2441C7.90034 10.0878 8.1123 10 8.33331 10C8.55433 10 8.76629 10.0878 8.92257 10.2441C9.07885 10.4004 9.16665 10.6123 9.16665 10.8333ZM12.0833 10.8333C12.0833 11.0543 11.9955 11.2663 11.8392 11.4226C11.683 11.5789 11.471 11.6667 11.25 11.6667C11.029 11.6667 10.817 11.5789 10.6607 11.4226C10.5044 11.2663 10.4166 11.0543 10.4166 10.8333C10.4166 10.6123 10.5044 10.4004 10.6607 10.2441C10.817 10.0878 11.029 10 11.25 10C11.471 10 11.683 10.0878 11.8392 10.2441C11.9955 10.4004 12.0833 10.6123 12.0833 10.8333Z" fill="#333333"/>
</svg>
