<svg width="20" height="20" viewBox="0 0 20 20" fill="none" xmlns="http://www.w3.org/2000/svg">
<path d="M11.25 16.25H16.25V17.5H11.25V16.25ZM11.25 13.75H18.75V15H11.25V13.75ZM11.25 11.25H18.75V12.5H11.25V11.25Z" fill="#333333"/>
<path d="M12.8431 7.01063L9.99999 1.25L7.15686 7.01063L0.799988 7.93437L5.39999 12.4188L4.31374 18.75L8.74999 16.4181V15.0056L5.97436 16.465L6.63186 12.63L6.74311 11.9819L6.27249 11.5237L3.48624 8.80687L7.33686 8.2475L7.98686 8.15313L8.27811 7.56375L9.99999 4.07438L11.7219 7.56375L12.0131 8.15313L12.6631 8.2475L17.3219 8.92563L17.5 7.6875L12.8431 7.01063Z" fill="#333333"/>
</svg>
