<?xml version="1.0" standalone="no"?>
<!DOCTYPE svg PUBLIC "-//W3C//DTD SVG 1.1//EN" "http://www.w3.org/Graphics/SVG/1.1/DTD/svg11.dtd">
<svg xmlns="http://www.w3.org/2000/svg">
<defs >
<font id="Urbanist" horiz-adv-x="1077" ><font-face
    font-family="Urbanist SemiBold"
    units-per-em="2000"
    panose-1="2 11 10 4 4 2 0 0 2 3"
    ascent="1900"
    descent="-500"
    alphabetic="0" />
<glyph unicode=" " horiz-adv-x="480" />
<glyph unicode="!" horiz-adv-x="418" d="M62 420L199 1400H376L239 420H62ZM88 -26Q42 -26 15 6T-7 85Q0 130 36 161T119 193Q164 193 191 162T211 85Q205 38 169 6T88 -26Z" />
<glyph unicode="&quot;" horiz-adv-x="564" d="M92 878L165 1400H312L239 878H92ZM375 878L448 1400H595L522 878H375Z" />
<glyph unicode="#" horiz-adv-x="1551" d="M1445 895H1266L1106 506H1287L1203 304H1025L900 0H692L817 304H411L288 0H80L203 304H24L107 506H286L446 895H265L348 1096H528L651 1400H859L736 1096H1141L1263 1400H1471L1349 1096H1528L1445 895ZM898 506L1058
895H654L494 506H898Z" />
<glyph unicode="$" horiz-adv-x="1199" d="M671 1214Q592 1215 518 1189T394 1116T335 1009Q325 934 360 895T463 838T613 804Q749 782 859 731T1029 596T1071 388Q1056 275 983 188T803 47T571 -21L543 -224H396L425 -21Q326 -11 241 27T97 128T20 274L226 347Q236
299 279 262T386 203T526 182Q606 182 680 208T804 280T863 388Q872 452 833 493T726 558T584 594Q441 618 331 664T165 793T127 1009Q143 1122 215 1210T396 1351T627 1418L656 1624H803L774 1418Q871 1408 956 1370T1100 1270T1178 1121L972 1050Q962 1099 919
1135T811 1193T671 1214Z" />
<glyph unicode="%" horiz-adv-x="1430" d="M92 0L1096 1400H1336L332 0H92ZM375 813Q299 813 241 850T153 951T135 1092Q147 1172 194 1235T310 1334T454 1371Q531 1371 588 1334T675 1233T693 1092Q682 1013 635 950T519 850T375 813ZM396 960Q452 960 495 998T546
1092Q554 1148 522 1186T433 1225Q378 1225 334 1187T282 1092Q275 1037 308 999T396 960ZM976 27Q899 27 841 66T755 169T736 307Q747 385 794 448T911 549T1054 587Q1134 587 1192 548T1277 445T1295 307Q1284 230 1238 167T1122 65T976 27ZM997 174Q1051 174
1096 213T1148 307Q1156 362 1122 401T1034 440Q979 440 935 401T882 307Q875 252 908 213T997 174Z" />
<glyph unicode="&amp;" horiz-adv-x="1426" d="M400 -26Q278 -26 191 33T63 188T37 397Q46 461 65 509T122 603T220 706T375 845Q336 892 310 927T271 992T254 1056T257 1131Q269 1219 321 1288T448 1398T605 1439Q690 1439 754 1398T850 1287T870 1131Q864 1088
851 1055T815 990T757 925T670 845L928 543L1204 784L1163 490L1054 395L1268 147L1101 0L888 247Q792 164 727 111T612 28T513 -14T400 -26ZM429 182Q469 182 499 191T562 224T642 289T761 396L501 698Q426 632 379 591T304 520T264 463T246 395Q237 334 259 286T327
210T429 182ZM539 963Q597 1014 627 1039T669 1084T686 1135Q693 1190 660 1223T580 1257Q530 1257 489 1221T441 1135Q437 1104 444 1084T475 1037T539 963Z" />
<glyph unicode="&apos;" horiz-adv-x="281" d="M92 878L165 1400H312L239 878H92Z" />
<glyph unicode="(" horiz-adv-x="718" d="M296 -112Q207 -13 160 104T102 357T112 644Q123 719 148 808T212 988T297 1161T397 1306T508 1400H716Q667 1364 616 1302T518 1159T430 990T362 813T320 644Q300 487 321 347T391 90T504 -112H296Z" />
<glyph unicode=")" horiz-adv-x="718" d="M-14 -112Q75 -27 156 89T297 346T382 644Q392 724 389 812T370 990T330 1159T272 1301T198 1400H406Q455 1369 491 1306T551 1161T587 988T600 808T590 644Q569 492 520 357T391 105T194 -112H-14Z" />
<glyph unicode="*" horiz-adv-x="717" d="M254 842L148 928L277 1077L111 1133L174 1273L343 1217L368 1400H515L489 1217L672 1273L698 1133L514 1077L602 928L471 842L385 991L254 842Z" />
<glyph unicode="+" horiz-adv-x="1160" d="M392 100L447 496H51L81 704H477L532 1100H740L685 704H1081L1051 496H655L600 100H392Z" />
<glyph unicode="," horiz-adv-x="470" d="M-34 -112L75 226H283L104 -112H-34Z" />
<glyph unicode="-" horiz-adv-x="880" d="M121 704H761L731 496H91L121 704Z" />
<glyph unicode="." horiz-adv-x="419" d="M87 -26Q41 -26 14 6T-7 84Q0 129 36 161T118 193Q164 193 191 161T213 84Q207 38 170 6T87 -26Z" />
<glyph unicode="/" horiz-adv-x="773" d="M791 1400L174 -112H-34L583 1400H791Z" />
<glyph unicode="0" horiz-adv-x="1202" d="M501 -26Q377 -26 285 30T136 187T59 418T60 700Q81 850 137 982T280 1213T473 1369T705 1426Q827 1426 919 1370T1067 1214T1143 982T1142 700Q1121 550 1065 419T923 187T731 31T501 -26ZM529 182Q645 182 732 254T873
445T947 700Q968 844 945 961T855 1148T675 1218Q587 1218 516 1176T392 1061T304 895T255 700Q236 563 258 445T347 255T529 182Z" />
<glyph unicode="1" horiz-adv-x="615" d="M149 0L316 1192H149L235 1400H553L357 0H149Z" />
<glyph unicode="2" horiz-adv-x="1124" d="M-18 0L7 185Q87 244 190 322T401 489T600 666T754 834T823 973Q832 1040 807 1095T732 1184T615 1218Q548 1218 488 1185T386 1096T336 973H128Q146 1100 222 1202T410 1365T644 1426Q768 1426 862 1365T1002 1202T1031
973Q1021 903 982 829T880 678T738 522T570 364T389 208H936L906 0H-18Z" />
<glyph unicode="3" horiz-adv-x="1009" d="M402 -26Q275 -26 183 33T47 191T20 411H228Q219 348 241 296T312 213T432 182Q494 182 552 213T651 296T700 411Q712 491 677 545T572 625T404 652L427 816Q559 816 645 868T746 1023Q753 1077 731 1121T667 1192T571
1219Q516 1219 462 1193T369 1122T323 1023H115Q127 1106 171 1179T284 1308T432 1395T597 1427Q707 1427 793 1373T925 1227T954 1023Q941 934 887 855T750 742Q815 718 853 667T905 549T908 411Q892 291 817 192T632 33T402 -26Z" />
<glyph unicode="4" horiz-adv-x="1135" d="M581 0L631 358H32L61 567L727 1400H985L868 566H996L967 358H839L789 0H581ZM304 567L660 566L736 1113L304 567Z" />
<glyph unicode="5" horiz-adv-x="1135" d="M441 -26Q308 -26 210 38T65 210T34 446H242Q232 373 259 313T341 218T470 182Q542 182 607 217T716 313T771 446Q782 519 758 579T672 676T509 713H156L394 1400H1071L1042 1192H534L442 921L562 919Q705 916 804 854T951
686T979 446Q965 349 917 264T794 113T630 11T441 -26Z" />
<glyph unicode="6" horiz-adv-x="1091" d="M437 -26Q303 -26 201 40T49 218T17 465Q27 537 52 595T121 717L611 1400H853L513 928Q599 944 676 930T818 875T927 773T991 633T998 465Q984 364 933 275T805 119T633 13T437 -26ZM466 182Q548 182 618 222T733 327T790
465Q801 542 773 606T685 708T547 747Q465 747 396 707T281 603T225 465Q214 384 244 320T333 219T466 182Z" />
<glyph unicode="7" horiz-adv-x="1089" d="M23 0L877 1192H109L138 1400H1147L1118 1192L262 0H23Z" />
<glyph unicode="8" d="M436 -26Q309 -26 213 32T70 187T38 405Q53 506 115 593T268 737Q207 787 177 863T157 1027Q173 1137 243 1227T418 1372T640 1426Q757 1426 846 1372T980 1228T1009 1027Q997 939 945 863T818 737Q895 680 932 593T955 405Q939 286 864
188T676 32T436 -26ZM465 182Q531 182 590 212T688 292T735 405Q744 466 719 516T644 597T528 627Q463 627 404 597T306 517T257 405Q249 343 274 293T349 212T465 182ZM557 835Q614 835 664 861T748 930T789 1027Q797 1080 776 1123T711 1192T611 1218Q554 1218
504 1192T419 1123T377 1027Q371 974 392 931T457 861T557 835Z" />
<glyph unicode="9" horiz-adv-x="1081" d="M213 0L565 490Q461 471 369 498T210 589T112 744T95 944Q108 1043 157 1130T283 1284T451 1388T644 1426Q775 1426 875 1361T1025 1187T1056 944Q1047 875 1022 818T954 698L454 0H213ZM536 671Q616 671 683 709T795
810T849 945Q860 1023 831 1085T744 1183T615 1219Q535 1219 468 1180T356 1079T301 945Q291 870 318 808T402 708T536 671Z" />
<glyph unicode=":" horiz-adv-x="419" d="M201 781Q155 781 128 813T107 891Q113 936 149 968T231 1000Q277 1000 305 968T326 891Q320 845 284 813T201 781ZM87 -26Q41 -26 14 6T-7 84Q0 129 36 161T118 193Q164 193 191 161T213 84Q207 38 170 6T87 -26Z" />
<glyph unicode=";" horiz-adv-x="475" d="M-34 -112L75 226H283L104 -112H-34ZM257 781Q211 781 183 812T162 890Q169 936 205 968T287 1000Q332 1000 360 968T381 890Q375 844 339 813T257 781Z" />
<glyph unicode="&lt;" horiz-adv-x="1160" d="M1002 142L42 426L90 772L1130 1058L1100 841L218 600L1032 358L1002 142Z" />
<glyph unicode="=" horiz-adv-x="1160" d="M22 286L51 493H1051L1022 286H22ZM81 707L110 914H1110L1081 707H81Z" />
<glyph unicode="&gt;" horiz-adv-x="1160" d="M2 150L33 366L914 600L99 833L130 1050L1090 772L1042 426L2 150Z" />
<glyph unicode="?" horiz-adv-x="1071" d="M390 447Q405 555 472 646T642 789Q699 817 737 871T784 992Q793 1055 770 1106T699 1188T588 1219Q525 1219 470 1189T376 1107T329 992H121Q139 1112 211 1210T390 1368T617 1427Q738 1427 828 1368T964 1211T992 992Q975
869 901 766T714 605Q667 582 636 540T598 447H390ZM432 -26Q386 -26 359 6T337 85Q344 130 380 161T462 193Q508 193 535 162T556 85Q550 39 514 7T432 -26Z" />
<glyph unicode="@" horiz-adv-x="1799" d="M769 -228Q599 -228 459 -171T220 -9T79 238T59 551Q83 720 167 869T380 1130T666 1306T994 1370Q1164 1370 1304 1306T1540 1129T1679 868T1698 551Q1684 460 1650 372T1562 212T1440 98T1289 55Q1230 55 1173 81T1080
153T1041 254Q995 208 933 181T797 153Q688 153 605 206T482 350T456 551Q472 661 538 751T702 894T909 948Q979 948 1042 923T1136 854L1146 928L1300 897L1224 355Q1218 314 1242 289T1306 263Q1357 263 1395 310T1457 425T1490 551Q1508 678 1476 789T1371 984T1194
1115T964 1162Q838 1162 721 1115T508 983T349 789T267 551Q249 424 282 319T388 139T566 21T798 -21L769 -228ZM836 311Q902 311 957 346T1048 437T1093 557Q1102 620 1083 672T1017 757T902 790Q836 790 777 758T679 672T629 551Q620 484 645 430T720 343T836
311Z" />
<glyph unicode="A" horiz-adv-x="1421" d="M687 1400H930L1243 0H1023L963 266H337L203 0H-18L687 1400ZM442 474H916L770 1124L442 474Z" />
<glyph unicode="B" horiz-adv-x="1154" d="M22 0L218 1400H715Q823 1400 904 1356T1026 1230T1050 1032Q1042 976 1017 922T953 827T864 769Q926 753 962 712T1016 615T1035 501T1030 389Q1015 277 949 189T785 51T578 0H22ZM255 180H583Q647 180 704 212T800
300T849 428Q858 490 835 545T763 635T651 669H323L255 180ZM349 846H615Q698 846 764 896T842 1033Q855 1126 803 1172T667 1219H401L349 846Z" />
<glyph unicode="C" horiz-adv-x="1418" d="M666 -26Q524 -26 407 30T210 186T94 418T80 700Q101 850 173 982T353 1213T595 1369T870 1426Q1040 1426 1171 1347T1379 1137L1180 1038Q1127 1120 1038 1169T841 1218Q741 1218 648 1177T479 1065T353 900T288 700Q273
593 297 500T377 335T514 223T695 182Q806 182 908 231T1085 363L1256 262Q1144 131 990 53T666 -26Z" />
<glyph unicode="D" horiz-adv-x="1343" d="M22 0L218 1400H681Q826 1400 945 1346T1147 1195T1266 972T1283 700Q1263 555 1191 429T1009 206T765 55T485 0H22ZM259 208H514Q615 208 709 246T881 352T1010 509T1075 700Q1090 802 1064 891T980 1048T838 1154T652
1192H397L259 208Z" />
<glyph unicode="E" horiz-adv-x="1089" d="M22 0L218 1400H1087L1058 1192H397L350 854H882L853 646H320L259 208H920L891 0H22Z" />
<glyph unicode="F" horiz-adv-x="965" d="M22 0L218 1400H1043L1013 1192H397L350 854H870L841 646H320L230 0H22Z" />
<glyph unicode="G" horiz-adv-x="1536" d="M667 -26Q521 -26 404 30T207 187T93 420T80 701Q102 858 176 990T362 1219T605 1371T874 1425Q1029 1425 1161 1353T1380 1137L1180 1036Q1120 1126 1032 1172T843 1218Q746 1218 654 1179T484 1069T355 904T288 698Q273
591 297 497T377 333T516 222T698 182Q772 182 843 206T979 274T1097 381T1186 519H889L915 703H1457Q1437 553 1366 421T1185 189T943 31T667 -26Z" />
<glyph unicode="H" horiz-adv-x="1289" d="M1059 1400H1267L1071 0H863L954 646H320L230 0H22L218 1400H426L350 854H983L1059 1400Z" />
<glyph unicode="I" horiz-adv-x="508" d="M52 0L248 1400H456L260 0H52Z" />
<glyph unicode="J" horiz-adv-x="859" d="M210 -26Q136 -26 69 -1T-49 73L107 233Q129 212 162 197T239 182Q299 182 353 213T444 296T490 407L629 1400H837L697 407Q681 290 610 192T433 34T210 -26Z" />
<glyph unicode="K" horiz-adv-x="1136" d="M1002 0H732L396 577L296 474L230 0H22L218 1400H426L341 797L930 1400H1202L555 739L1002 0Z" />
<glyph unicode="L" horiz-adv-x="1031" d="M22 0L218 1400H426L259 208H863L833 0H22Z" />
<glyph unicode="M" horiz-adv-x="1835" d="M22 0L489 1400H657L883 457L1373 1400H1541L1617 0H1405L1355 937L896 53H757L546 937L234 0H22Z" />
<glyph unicode="N" horiz-adv-x="1316" d="M22 0L218 1400H443L942 376L1086 1400H1294L1098 0H873L374 1024L230 0H22Z" />
<glyph unicode="O" horiz-adv-x="1540" d="M668 -26Q526 -26 409 30T211 187T95 418T80 700Q101 850 173 981T354 1213T597 1369T872 1426Q1015 1426 1132 1370T1329 1213T1445 982T1460 700Q1439 550 1367 419T1186 187T944 31T668 -26ZM697 182Q797 182 890
223T1059 335T1186 500T1252 700Q1267 806 1243 900T1162 1065T1025 1177T843 1218Q743 1218 650 1177T481 1065T354 900T288 700Q273 593 297 500T378 335T515 223T697 182Z" />
<glyph unicode="P" horiz-adv-x="1087" d="M22 0L218 1400H700Q813 1400 897 1344T1022 1193T1046 983Q1030 866 961 772T793 621T583 565H309L230 0H22ZM338 773H591Q650 773 704 803T795 883T840 996Q849 1059 827 1109T759 1189T654 1219H401L338 773Z" />
<glyph unicode="Q" horiz-adv-x="1566" d="M1234 -36L1097 123Q1003 55 894 17T668 -21Q526 -21 409 35T211 191T95 423T80 705Q101 855 173 986T354 1218T597 1374T872 1431Q1015 1431 1132 1375T1329 1218T1445 987T1460 705Q1443 583 1391 474T1262 273L1402
111L1234 -36ZM698 187Q767 187 837 210T967 275L834 429L1002 577L1129 428Q1178 488 1210 559T1252 705Q1267 812 1243 905T1162 1070T1025 1182T844 1223Q744 1223 651 1182T481 1070T354 905T288 705Q274 598 298 504T378 339T517 227T698 187Z" />
<glyph unicode="R" horiz-adv-x="1179" d="M22 0L218 1400H733Q847 1400 930 1344T1054 1194T1078 983Q1065 885 1017 804T895 666T733 584L990 0H749L500 565H309L230 0H22ZM338 773H623Q683 773 736 803T827 883T872 996Q882 1059 860 1109T792 1189T686 1219H401L338
773Z" />
<glyph unicode="S" horiz-adv-x="1239" d="M517 -26Q402 -26 301 10T131 113T40 274L246 347Q256 299 299 262T406 203T546 182Q626 182 700 208T824 280T883 388Q892 452 853 493T746 558T604 594Q461 618 351 664T185 793T147 1009Q165 1134 250 1227T459 1371T721
1423Q834 1423 934 1388T1106 1285T1198 1121L992 1050Q982 1099 939 1135T831 1193T691 1214Q612 1215 538 1189T414 1116T355 1009Q345 934 380 895T483 838T633 804Q769 782 879 731T1049 596T1091 388Q1074 264 990 171T780 26T517 -26Z" />
<glyph unicode="T" horiz-adv-x="1259" d="M1277 1400L1248 1192H802L635 0H427L594 1192H149L178 1400H1277Z" />
<glyph unicode="U" horiz-adv-x="1348" d="M572 -26Q404 -26 292 56T130 276T104 584L218 1400H426L312 584Q297 474 324 383T421 237T602 182Q714 182 799 236T936 382T1004 584L1118 1400H1326L1212 584Q1194 457 1140 347T1001 152T807 21T572 -26Z" />
<glyph unicode="V" horiz-adv-x="1418" d="M480 0L168 1400H388L645 247L1226 1400H1446L742 0H480Z" />
<glyph unicode="W" horiz-adv-x="1804" d="M330 0L168 1400H382L500 373L905 1400H1094L1212 373L1618 1400H1832L1280 0H1041L934 927L567 0H330Z" />
<glyph unicode="X" horiz-adv-x="1403" d="M-38 0L574 704L164 1400H421L727 880L1178 1400H1435L832 704L1245 0H987L677 526L221 0H-38Z" />
<glyph unicode="Y" horiz-adv-x="1283" d="M1076 1400H1321L736 632L647 0H439L528 632L158 1400H403L664 859L1076 1400Z" />
<glyph unicode="Z" horiz-adv-x="1292" d="M-18 0L11 208L1001 1192H149L178 1400H1310L1281 1192L291 208H1143L1114 0H-18Z" />
<glyph unicode="[" horiz-adv-x="606" d="M420 96L392 -112H6L218 1400H604L574 1192H397L243 96H420Z" />
<glyph unicode="\" horiz-adv-x="773" d="M371 -112L178 1400H386L579 -112H371Z" />
<glyph unicode="]" horiz-adv-x="607" d="M-14 -112L15 96H194L348 1192H169L198 1400H585L373 -112H-14Z" />
<glyph unicode="^" horiz-adv-x="898" d="M122 1000L450 1650H716L860 1000H639L549 1407L343 1000H122Z" />
<glyph unicode="_" horiz-adv-x="1240" d="M35 96H1035L1006 -112H6L35 96Z" />
<glyph unicode="`" horiz-adv-x="934" d="M372 1398H580L620 1110H482L372 1398Z" />
<glyph unicode="a" horiz-adv-x="1185" d="M940 1000H1148L1008 0H799L811 145Q756 68 675 21T491 -26Q381 -26 290 15T136 131T45 301T33 509Q48 616 101 710T235 876T415 987T622 1028Q731 1028 807 979T928 852L940 1000ZM514 175Q602 175 674 218T793 336T853
500Q866 591 840 665T753 782T606 826Q519 826 441 782T311 664T245 500Q233 409 265 336T363 219T514 175Z" />
<glyph unicode="b" horiz-adv-x="1228" d="M687 1028Q833 1028 942 957T1106 767T1140 501Q1125 392 1071 297T934 129T750 15T539 -26Q434 -26 362 22T251 147L231 0H23L233 1500H441L351 855Q411 932 496 980T687 1028ZM565 176Q653 176 731 220T862 338T927
501Q940 592 907 666T809 783T657 827Q570 827 498 783T378 665T318 501Q306 411 333 337T419 220T565 176Z" />
<glyph unicode="c" horiz-adv-x="1019" d="M714 284L886 183Q804 88 692 31T458 -26Q320 -26 217 45T63 235T32 500Q47 610 99 705T231 873T406 987T606 1028Q728 1028 824 971T976 818L775 717Q741 767 689 793T577 820Q494 820 422 776T301 659T240 500Q228
415 256 343T345 226T487 182Q550 182 609 210T714 284Z" />
<glyph unicode="d" horiz-adv-x="1227" d="M1011 1500H1219L1009 0H801L822 147Q761 69 676 22T484 -26Q375 -26 286 15T134 128T45 296T32 500Q47 609 101 704T238 872T422 986T632 1027Q738 1027 810 980T921 855L1011 1500ZM514 175Q602 175 674 218T793 336T853
500Q866 591 840 665T753 782T606 826Q519 826 441 782T311 664T245 500Q233 409 265 336T363 219T514 175Z" />
<glyph unicode="e" horiz-adv-x="1118" d="M458 -26Q320 -26 217 45T63 235T32 500Q47 610 99 705T231 873T406 987T606 1028Q721 1028 810 981T956 850T1029 658T1015 427H245Q247 358 277 303T361 215T487 182Q563 182 631 220T748 325L952 276Q873 143 741
59T458 -26ZM260 586H828Q828 658 796 716T709 809T581 844Q509 844 445 810T332 718T260 586Z" />
<glyph unicode="f" horiz-adv-x="707" d="M450 1227L419 1000H701L672 792H389L279 0H71L181 792H63L92 1000H211L242 1227Q254 1309 304 1376T427 1484T583 1524Q643 1524 696 1500T788 1426L618 1279Q609 1297 591 1306T553 1316Q516 1316 486 1290T450 1227Z" />
<glyph unicode="g" horiz-adv-x="1209" d="M923 1000H1131L987 -26Q973 -129 917 -216T778 -366T595 -465T390 -500Q285 -500 195 -456T42 -335T-44 -163L159 -77Q170 -139 208 -187T301 -263T420 -291Q482 -291 542 -272T652 -217T737 -133T779 -26L803 143Q743
67 660 21T474 -26Q368 -26 280 15T131 128T44 296T32 500Q47 609 100 704T235 872T416 986T622 1027Q724 1027 794 981T903 857L923 1000ZM504 175Q590 175 661 219T780 338T839 500Q852 590 826 663T740 781T596 826Q511 826 436 782T309 664T245 500Q233 410
263 336T357 219T504 175Z" />
<glyph unicode="h" horiz-adv-x="1101" d="M1011 627L923 0H715L796 576Q806 643 781 698T705 785T588 818Q521 818 462 786T362 698T312 576L231 0H23L233 1500H441L357 894Q417 956 498 992T667 1028Q778 1028 861 974T985 829T1011 627Z" />
<glyph unicode="i" horiz-adv-x="448" d="M162 1000H370L230 0H22L162 1000ZM288 1145Q241 1145 213 1176T192 1254Q199 1300 235 1331T318 1363Q364 1363 392 1332T413 1254Q406 1207 371 1176T288 1145Z" />
<glyph unicode="j" horiz-adv-x="471" d="M-249 -500L-219 -292Q-156 -292 -102 -264T-11 -185T35 -74L185 1000H393L243 -74Q227 -191 156 -288T-21 -442T-249 -500ZM311 1145Q264 1145 236 1176T215 1254Q222 1300 258 1331T341 1363Q387 1363 415 1332T436
1254Q429 1207 394 1176T311 1145Z" />
<glyph unicode="k" horiz-adv-x="1041" d="M878 0H638L451 424L263 232L231 0H23L233 1500H441L308 555L743 1000H1015L617 593L878 0Z" />
<glyph unicode="l" horiz-adv-x="448" d="M23 0L233 1500H441L231 0H23Z" />
<glyph unicode="m" horiz-adv-x="1776" d="M22 0L162 1000H370L355 894Q416 956 496 992T665 1028Q772 1028 854 977T978 840Q1043 925 1139 976T1342 1028Q1453 1028 1536 974T1661 829T1686 627L1599 0H1391L1472 574Q1481 640 1457 695T1383 784T1267 818Q1201
818 1143 786T1045 699T995 574L915 0H707L787 574Q797 644 773 699T698 786T582 818Q517 818 459 784T360 695T311 574L230 0H22Z" />
<glyph unicode="n" horiz-adv-x="1100" d="M1010 627L922 0H714L795 576Q805 643 780 698T704 785T587 818Q520 818 461 786T361 698T311 576L230 0H22L162 1000H370L356 894Q416 956 497 992T666 1028Q777 1028 860 974T984 829T1010 627Z" />
<glyph unicode="o" horiz-adv-x="1120" d="M458 -26Q320 -26 217 45T63 235T32 500Q47 610 99 705T231 873T406 987T606 1028Q744 1028 847 957T1002 766T1032 500Q1017 391 965 296T833 129T658 15T458 -26ZM487 182Q570 182 642 226T763 342T824 500Q836 587
807 660T718 776T577 820Q495 820 423 776T301 659T240 500Q228 411 257 339T347 225T487 182Z" />
<glyph unicode="p" horiz-adv-x="1226" d="M159 -500H-49L162 1000H370L350 853Q410 930 495 978T686 1026Q795 1026 884 985T1036 872T1126 704T1138 500Q1123 391 1069 295T932 127T748 13T538 -28Q432 -28 361 20T250 145L159 -500ZM655 825Q568 825 496 781T377
664T317 500Q305 410 331 336T416 218T563 174Q649 174 727 217T859 335T926 500Q939 589 907 663T808 781T655 825Z" />
<glyph unicode="q" horiz-adv-x="1226" d="M484 -28Q339 -28 230 43T66 234T32 500Q47 609 101 704T238 871T422 985T632 1026Q738 1026 809 978T919 853L940 1000H1148L937 -500H729L820 145Q760 69 675 21T484 -28ZM606 825Q518 825 441 781T311 663T245 500Q233
409 265 335T362 218T514 174Q602 174 673 218T792 336T852 500Q865 590 839 663T753 781T606 825Z" />
<glyph unicode="r" horiz-adv-x="751" d="M22 0L162 1000H370L356 894Q416 956 497 992T666 1028Q722 1028 775 1013L662 803Q626 818 587 818Q520 818 461 786T361 698T311 576L230 0H22Z" />
<glyph unicode="s" horiz-adv-x="865" d="M319 -19Q240 -14 170 13T49 86T-21 196L167 272Q176 245 205 219T275 177T365 160Q412 160 454 173T527 215T563 282Q569 326 543 350T474 388T390 413Q294 435 219 473T103 572T75 721Q89 817 151 887T303 996T489 1034Q609
1034 702 983T836 843L656 745Q645 775 619 799T557 837T480 854Q429 856 384 843T309 800T272 726Q266 682 293 661T367 626T460 597Q545 569 617 529T730 429T756 285Q742 191 676 120T515 12T319 -19Z" />
<glyph unicode="t" horiz-adv-x="707" d="M661 792H451L339 0H131L243 792H84L113 1000H272L315 1314H523L480 1000H690L661 792Z" />
<glyph unicode="u" horiz-adv-x="1060" d="M35 375L122 1000H330L249 426Q240 359 265 304T340 217T457 184Q524 184 584 216T684 304T733 426L813 1000H1021L882 0H674L688 108Q628 46 547 10T379 -26Q268 -26 185 28T60 173T35 375Z" />
<glyph unicode="v" horiz-adv-x="1117" d="M594 0H327L103 1002H324L494 240L877 1002H1099L594 0Z" />
<glyph unicode="w" horiz-adv-x="1677" d="M504 0H297L102 1000H306L443 298L776 1000H986L1121 298L1455 1000H1659L1185 0H976L839 707L504 0Z" />
<glyph unicode="x" horiz-adv-x="1149" d="M-18 0L418 502L125 1002H382L571 680L852 1002H1108L675 502L971 0H714L521 326L239 0H-18Z" />
<glyph unicode="y" horiz-adv-x="1107" d="M847 1000H1069L310 -500H89L341 0L122 1000H349L485 285L847 1000Z" />
<glyph unicode="z" horiz-adv-x="1014" d="M947 792L309 208H865L836 0H-18L11 208L649 792H93L122 1000H976L947 792Z" />
<glyph unicode="{" horiz-adv-x="814" d="M504 -113Q407 -113 334 -66T226 61T203 237L237 482Q240 511 221 528T174 560T128 593T112 643Q117 674 141 693T197 728T253 760T283 804L317 1050Q331 1146 389 1225T533 1352T716 1400H812L784 1192H688Q649 1192
614 1173T555 1122T525 1050L490 797Q483 761 463 738T416 694T365 643Q382 612 402 591T437 549T447 490L411 237Q406 198 420 166T464 115T534 95H630L600 -113H504Z" />
<glyph unicode="|" horiz-adv-x="488" d="M238 1400H446L207 -302H-1L238 1400Z" />
<glyph unicode="}" horiz-adv-x="814" d="M-14 -113L15 95H111Q150 95 185 114T244 166T273 237L309 490Q316 527 336 548T382 591T435 643Q417 673 397 694T363 738T352 797L387 1050Q393 1089 379 1121T334 1173T265 1192H169L198 1400H294Q391 1400 464 1353T573
1226T595 1050L561 804Q558 777 578 760T625 728T671 694T686 643Q682 612 657 593T601 560T545 529T515 482L481 237Q468 141 410 62T265 -65T82 -113H-14Z" />
<glyph unicode="~" horiz-adv-x="1277" d="M898 406Q833 406 763 435T622 501T487 568T371 597Q335 598 309 579T269 528T255 462L51 461Q47 546 92 622T215 746T380 794Q444 794 508 765T635 696T758 628T872 598Q909 598 936 617T978 667T992 733L1196 735Q1200
649 1162 574T1054 453T898 406Z" />
<glyph unicode="&#xa0;" horiz-adv-x="480" />
<glyph unicode="&#xa1;" horiz-adv-x="403" d="M234 1026Q281 1026 308 995T328 915Q322 870 286 839T203 807Q159 807 132 838T110 915Q117 963 153 994T234 1026ZM261 580L123 -400H-55L83 580H261Z" />
<glyph unicode="&#xa2;" horiz-adv-x="1092" d="M409 0L438 205Q320 223 233 293T104 469T80 702Q98 828 169 934T347 1110T577 1197L605 1400H752L723 1197Q835 1182 920 1119T1049 962L854 858Q824 921 761 958T624 996Q543 996 471 956T349 850T288 702Q277
620 308 553T400 446T541 406Q615 406 688 443T810 544L975 440Q905 346 803 283T584 205L556 0H409Z" />
<glyph unicode="&#xa3;" horiz-adv-x="1184" d="M6 0L35 208Q88 208 143 222T244 261T313 324T330 406Q327 453 308 491T261 564T203 635T149 711T113 802T110 916Q125 1021 178 1113T311 1275T489 1386T692 1426Q799 1426 886 1386T1033 1276T1121 1114T1134
916H926Q938 999 907 1067T812 1177T664 1218Q581 1218 507 1177T381 1068T318 916Q309 846 323 797T367 710T429 638T491 565T534 473T538 347Q534 317 519 289T483 240T443 208H1018L989 0H6ZM69 447L89 593H852L831 447H69Z" />
<glyph unicode="&#xa4;" horiz-adv-x="1011" d="M123 274L34 377L180 505Q150 564 147 631T165 767T236 893L126 1024L244 1126L354 997Q417 1036 487 1049T624 1051T743 999L890 1126L977 1024L833 897Q866 838 870 769T851 631T780 503L886 377L769 274L662
399Q596 359 526 346T389 345T268 401L123 274ZM478 485Q537 486 589 514T676 591T721 698Q729 760 707 807T640 882T538 910Q477 911 425 882T338 804T295 698Q287 639 309 590T376 513T478 485Z" />
<glyph unicode="&#xa5;" horiz-adv-x="1298" d="M447 0L470 164H210L230 310H490L507 430H247L268 576H528L535 632L165 1400H411L672 859L1083 1400H1329L743 632L736 576H996L975 430H715L698 310H958L938 164H678L655 0H447Z" />
<glyph unicode="&#xa6;" horiz-adv-x="448" d="M85 448H293L187 -302H-21L85 448ZM218 1400H426L321 650H113L218 1400Z" />
<glyph unicode="&#xa7;" horiz-adv-x="1093" d="M392 -382Q272 -382 180 -331T45 -191L224 -94Q235 -123 261 -147T324 -186T400 -203Q452 -204 497 -191T572 -148T609 -74Q615 -30 588 -6T516 32T421 55Q310 73 230 135T113 292T92 499Q103 577 139 646T231 771T355
861Q283 891 252 942T231 1070Q245 1166 307 1236T459 1344T645 1382Q765 1382 857 1332T992 1191L812 1094Q802 1123 776 1147T713 1186T636 1203Q585 1204 540 1191T465 1148T428 1074Q422 1031 447 1007T517 970T612 946Q728 923 808 864T925 712T945 499Q934
422 898 353T805 228T680 140Q753 109 784 58T805 -70Q792 -166 730 -236T579 -344T392 -382ZM491 246Q555 246 613 281T711 374T760 497Q771 575 745 633T665 722T541 754Q481 754 424 718T326 624T276 499Q266 428 291 371T369 280T491 246Z" />
<glyph unicode="&#xa8;" horiz-adv-x="1390" d="M564 1074Q518 1074 490 1105T468 1183Q475 1229 511 1261T595 1293Q641 1293 669 1261T690 1183Q683 1136 647 1105T564 1074ZM933 1074Q886 1074 858 1105T836 1183Q842 1229 879 1261T963 1293Q1009 1293 1037
1261T1058 1183Q1051 1136 1015 1105T933 1074Z" />
<glyph unicode="&#xa9;" horiz-adv-x="1871" d="M796 -284Q619 -284 474 -218T227 -34T82 239T62 571Q87 749 175 904T397 1176T695 1359T1037 1426Q1214 1426 1359 1360T1606 1177T1753 904T1773 572Q1748 394 1660 239T1437 -33T1138 -217T796 -284ZM826 -76Q963
-76 1088 -25T1314 116T1481 323T1565 571Q1584 705 1550 822T1439 1029T1252 1168T1008 1218Q872 1217 748 1167T522 1026T355 820T270 571Q251 435 285 317T397 111T585 -26T826 -76ZM1094 355L1266 254Q1184 159 1072 102T837 45Q699 45 596 116T442 306T411
571Q426 681 478 776T610 944T785 1058T985 1099Q1108 1099 1204 1042T1356 889L1154 789Q1120 838 1068 864T956 891Q874 891 802 847T681 730T619 572Q607 486 635 414T724 297T866 253Q929 253 988 281T1094 355Z" />
<glyph unicode="&#xaa;" horiz-adv-x="1185" d="M940 1000H1148L1008 0H799L811 145Q756 68 675 21T491 -26Q381 -26 290 15T136 131T45 301T33 509Q48 616 101 710T235 876T415 987T622 1028Q731 1028 807 979T928 852L940 1000ZM514 175Q602 175 674 218T793
336T853 500Q866 591 840 665T753 782T606 826Q519 826 441 782T311 664T245 500Q233 409 265 336T363 219T514 175Z" />
<glyph unicode="&#xab;" horiz-adv-x="1122" d="M358 261L106 601L454 939H669L323 601L573 261H358ZM745 261L493 601L841 939H1056L710 601L960 261H745Z" />
<glyph unicode="&#xac;" horiz-adv-x="1006" d="M661 298L717 694H79L109 902H954L869 298H661Z" />
<glyph unicode="&#xad;" horiz-adv-x="896" d="M137 704H777L747 496H107L137 704Z" />
<glyph unicode="&#xae;" horiz-adv-x="1080" d="M500 421Q401 421 319 458T181 562T100 716T88 901Q102 1000 151 1086T276 1239T443 1343T635 1380Q737 1380 818 1342T956 1237T1037 1084T1048 901Q1034 802 985 715T859 562T691 458T500 421ZM521 573Q612 573
692 617T828 736T895 901Q908 991 874 1065T772 1184T613 1228Q523 1228 443 1184T308 1066T240 901Q228 811 261 737T363 618T521 573ZM408 704L467 1121H627Q679 1121 709 1083T732 991Q726 952 702 921T643 876L720 704H615L544 863H521L498 704H408ZM533 953H603Q616
953 627 964T641 991Q643 1008 636 1019T614 1030H544L533 953Z" />
<glyph unicode="&#xaf;" horiz-adv-x="1200" d="M348 1311H1024L1001 1153H325L348 1311Z" />
<glyph unicode="&#xb0;" horiz-adv-x="841" d="M427 740Q331 740 260 787T155 912T133 1080Q147 1173 203 1250T343 1373T522 1420Q619 1420 689 1373T793 1248T814 1080Q801 984 744 907T603 785T427 740ZM456 948Q511 948 555 986T606 1080Q614 1136 581 1174T493
1212Q438 1212 394 1174T341 1080Q334 1025 367 987T456 948Z" />
<glyph unicode="&#xb1;" horiz-adv-x="1160" d="M429 361L484 757H88L117 965H513L569 1361H777L721 965H1117L1088 757H692L637 361H429ZM-18 0L11 208H1011L982 0H-18Z" />
<glyph unicode="&#xb2;" horiz-adv-x="705" d="M113 818L129 936Q174 964 229 998T339 1071T439 1154T507 1246Q513 1288 488 1316T421 1344Q378 1344 344 1316T304 1246H173Q182 1310 220 1360T316 1439T438 1468Q534 1468 592 1405T638 1246Q632 1205 606 1165T540
1086T455 1014T367 949H589L571 818H113Z" />
<glyph unicode="&#xb3;" horiz-adv-x="570" d="M300 798Q212 798 157 855T114 1001H245Q240 966 261 944T317 922Q351 922 377 944T409 1001Q414 1041 385 1071T292 1101L305 1194Q367 1194 396 1220T430 1280Q434 1308 417 1326T371 1344Q344 1344 322 1326T295
1280H164Q176 1363 241 1415T389 1467Q472 1467 522 1415T561 1280Q556 1242 538 1208T493 1151Q523 1121 535 1084T540 1001Q527 912 457 855T300 798Z" />
<glyph unicode="&#xb4;" horiz-adv-x="934" d="M430 1110L550 1398H758L570 1110H430Z" />
<glyph unicode="&#xb5;" horiz-adv-x="1108" d="M-79 -432L122 1000H330L257 482Q246 397 271 328T351 217T486 175Q564 175 628 216T734 327T789 482L862 1000H1070L930 0H722L741 136Q678 61 598 17T425 -27Q352 -27 295 2T201 80L129 -432H-79Z" />
<glyph unicode="&#xb6;" horiz-adv-x="988" d="M279 -302L423 718Q329 718 258 764T152 887T130 1059Q144 1153 200 1230T340 1354T518 1400H726L487 -302H279ZM559 -302L798 1400H1006L767 -302H559Z" />
<glyph unicode="&#xb7;" horiz-adv-x="379" d="M160 490Q114 490 87 522T66 601Q72 645 108 677T190 710Q236 710 264 678T285 601Q279 554 243 522T160 490Z" />
<glyph unicode="&#xb8;" horiz-adv-x="1258" d="M461 -373Q390 -391 333 -356T267 -252L383 -222Q386 -244 404 -255T446 -261Q470 -255 484 -235T496 -192Q493 -169 475 -159T433 -152L315 -159L482 76L575 18L526 -50Q561 -63 584 -92T613 -163Q621 -231 577
-293T461 -373Z" />
<glyph unicode="&#xb9;" horiz-adv-x="441" d="M183 818L253 1318H183L220 1449H402L314 818H183Z" />
<glyph unicode="&#xba;" horiz-adv-x="1120" d="M458 -26Q320 -26 217 45T63 235T32 500Q47 610 99 705T231 873T406 987T606 1028Q744 1028 847 957T1002 766T1032 500Q1017 391 965 296T833 129T658 15T458 -26ZM487 182Q570 182 642 226T763 342T824 500Q836
587 807 660T718 776T577 820Q495 820 423 776T301 659T240 500Q228 411 257 339T347 225T487 182Z" />
<glyph unicode="&#xbb;" horiz-adv-x="1142" d="M425 261L772 601L521 939H736L988 601L640 261H425ZM38 261L385 601L134 939H349L601 601L253 261H38Z" />
<glyph unicode="&#xbc;" horiz-adv-x="1579" d="M183 818L253 1318H183L220 1449H402L314 818H183ZM76 0L1080 1400H1256L252 0H76ZM1142 0L1157 106H904L926 264L1210 631H1362L1306 237H1369L1351 106H1288L1274 0H1142ZM1052 237H1186L1216 449L1052 237Z" />
<glyph unicode="&#xbd;" horiz-adv-x="1596" d="M183 818L253 1318H183L220 1449H402L314 818H183ZM76 0L1080 1400H1256L252 0H76ZM889 0L905 118Q950 146 1005 180T1115 253T1215 337T1283 429Q1289 471 1264 498T1197 526Q1154 526 1121 499T1080 429H949Q958
493 997 545T1093 627T1215 657Q1279 657 1327 627T1399 545T1414 429Q1408 388 1382 348T1316 269T1231 196T1143 131H1365L1347 0H889Z" />
<glyph unicode="&#xbe;" horiz-adv-x="1707" d="M300 798Q212 798 157 855T114 1001H245Q240 966 261 944T317 922Q351 922 377 944T409 1001Q414 1041 385 1071T292 1101L305 1194Q367 1194 396 1220T430 1280Q434 1308 417 1326T371 1344Q344 1344 322 1326T295
1280H164Q176 1363 241 1415T389 1467Q472 1467 522 1415T561 1280Q556 1242 538 1208T493 1151Q523 1121 535 1084T540 1001Q527 912 457 855T300 798ZM205 0L1209 1400H1385L381 0H205ZM1271 0L1286 106H1033L1055 264L1339 631H1491L1435 237H1498L1480 106H1417L1403
0H1271ZM1181 237H1315L1345 449L1181 237Z" />
<glyph unicode="&#xbf;" horiz-adv-x="1056" d="M357 -427Q237 -427 147 -368T11 -210T-17 8Q0 131 74 235T260 395Q308 418 339 460T378 554H586Q570 447 503 356T333 212Q276 183 238 129T191 8Q182 -55 205 -106T276 -188T387 -219Q449 -219 505 -188T599 -106T647
8H855Q838 -111 765 -210T585 -368T357 -427ZM512 807Q468 807 441 838T418 915Q425 963 461 994T543 1026Q589 1026 616 995T636 915Q631 870 595 839T512 807Z" />
<glyph unicode="&#xc0;" horiz-adv-x="1421" d="M687 1400H930L1243 0H1023L963 266H337L203 0H-18L687 1400ZM442 474H916L770 1124L442 474ZM627 1798H835L875 1510H737L627 1798Z" />
<glyph unicode="&#xc1;" horiz-adv-x="1421" d="M687 1400H930L1243 0H1023L963 266H337L203 0H-18L687 1400ZM442 474H916L770 1124L442 474ZM770 1510L890 1798H1098L910 1510H770Z" />
<glyph unicode="&#xc2;" horiz-adv-x="1421" d="M687 1400H930L1243 0H1023L963 266H337L203 0H-18L687 1400ZM442 474H916L770 1124L442 474ZM981 1798L1134 1510H995L852 1707L656 1510H518L748 1798H981Z" />
<glyph unicode="&#xc3;" horiz-adv-x="1421" d="M687 1400H930L1243 0H1023L963 266H337L203 0H-18L687 1400ZM442 474H916L770 1124L442 474ZM980 1514Q943 1514 898 1539T808 1595T729 1647T675 1656Q656 1645 646 1623T640 1565L510 1531Q495 1601 517 1661T589
1757T708 1794Q745 1794 788 1772T875 1722T953 1672T1007 1650Q1028 1650 1038 1665T1050 1702T1048 1741L1181 1782Q1196 1707 1172 1647T1098 1550T980 1514Z" />
<glyph unicode="&#xc4;" horiz-adv-x="1421" d="M687 1400H930L1243 0H1023L963 266H337L203 0H-18L687 1400ZM442 474H916L770 1124L442 474ZM635 1474Q589 1474 561 1505T539 1583Q546 1629 582 1661T666 1693Q712 1693 740 1661T761 1583Q754 1536 718 1505T635
1474ZM1004 1474Q957 1474 929 1505T907 1583Q913 1629 950 1661T1034 1693Q1080 1693 1108 1661T1129 1583Q1122 1536 1086 1505T1004 1474Z" />
<glyph unicode="&#xc5;" horiz-adv-x="1421" d="M687 1400H930L1243 0H1023L963 266H337L203 0H-18L687 1400ZM442 474H916L770 1124L442 474ZM819 1478Q747 1478 703 1530T668 1655Q675 1703 704 1743T776 1806T869 1830Q942 1830 986 1779T1020 1655Q1010 1581
951 1530T819 1478ZM834 1582Q863 1582 887 1603T916 1655Q920 1684 902 1704T854 1725Q824 1725 801 1705T773 1655Q768 1625 786 1604T834 1582Z" />
<glyph unicode="&#xc6;" horiz-adv-x="1658" d="M-18 0L687 1400H1656L1627 1192H1106L1051 804H1476L1448 596H1023L968 208H1489L1460 0H731L768 266H337L203 0H-18ZM442 474H797L898 1192H804L442 474Z" />
<glyph unicode="&#xc7;" horiz-adv-x="1418" d="M666 -26Q524 -26 407 30T210 186T94 418T80 700Q101 850 173 982T353 1213T595 1369T870 1426Q1040 1426 1171 1347T1379 1137L1180 1038Q1127 1120 1038 1169T841 1218Q741 1218 648 1177T479 1065T353 900T288
700Q273 593 297 500T377 335T514 223T695 182Q806 182 908 231T1085 363L1256 262Q1144 131 990 53T666 -26ZM623 -373Q552 -391 495 -356T429 -252L545 -222Q548 -244 566 -255T608 -261Q632 -255 646 -235T658 -192Q655 -169 637 -159T595 -152L477 -159L644
76L737 18L688 -50Q723 -63 746 -92T775 -163Q783 -231 739 -293T623 -373Z" />
<glyph unicode="&#xc8;" horiz-adv-x="1089" d="M22 0L218 1400H1087L1058 1192H397L350 854H882L853 646H320L259 208H920L891 0H22ZM461 1798H669L709 1510H571L461 1798Z" />
<glyph unicode="&#xc9;" horiz-adv-x="1089" d="M22 0L218 1400H1087L1058 1192H397L350 854H882L853 646H320L259 208H920L891 0H22ZM604 1510L724 1798H932L744 1510H604Z" />
<glyph unicode="&#xca;" horiz-adv-x="1089" d="M22 0L218 1400H1087L1058 1192H397L350 854H882L853 646H320L259 208H920L891 0H22ZM815 1798L968 1510H829L686 1707L490 1510H352L582 1798H815Z" />
<glyph unicode="&#xcb;" horiz-adv-x="1089" d="M22 0L218 1400H1087L1058 1192H397L350 854H882L853 646H320L259 208H920L891 0H22ZM469 1474Q423 1474 395 1505T373 1583Q380 1629 416 1661T500 1693Q546 1693 574 1661T595 1583Q588 1536 552 1505T469 1474ZM838
1474Q791 1474 763 1505T741 1583Q747 1629 784 1661T868 1693Q914 1693 942 1661T963 1583Q956 1536 920 1505T838 1474Z" />
<glyph unicode="&#xcc;" horiz-adv-x="508" d="M52 0L248 1400H456L260 0H52ZM170 1798H378L418 1510H280L170 1798Z" />
<glyph unicode="&#xcd;" horiz-adv-x="508" d="M52 0L248 1400H456L260 0H52ZM314 1510L434 1798H642L454 1510H314Z" />
<glyph unicode="&#xce;" horiz-adv-x="508" d="M52 0L248 1400H456L260 0H52ZM524 1798L677 1510H538L395 1707L199 1510H61L291 1798H524Z" />
<glyph unicode="&#xcf;" horiz-adv-x="508" d="M52 0L248 1400H456L260 0H52ZM179 1474Q133 1474 105 1505T83 1583Q90 1629 126 1661T210 1693Q256 1693 284 1661T305 1583Q298 1536 262 1505T179 1474ZM548 1474Q501 1474 473 1505T451 1583Q457 1629 494 1661T578
1693Q624 1693 652 1661T673 1583Q666 1536 630 1505T548 1474Z" />
<glyph unicode="&#xd0;" horiz-adv-x="1458" d="M137 0L228 646H92L122 854H257L333 1400H796Q941 1400 1060 1346T1262 1195T1381 972T1398 700Q1378 555 1306 429T1124 206T880 55T600 0H137ZM374 208H629Q732 208 826 246T998 353T1125 511T1190 700Q1205 803
1179 892T1094 1048T952 1154T767 1192H513L465 854H764L735 646H436L374 208Z" />
<glyph unicode="&#xd1;" horiz-adv-x="1316" d="M22 0L218 1400H443L942 376L1086 1400H1294L1098 0H873L374 1024L230 0H22ZM927 1514Q890 1514 845 1539T755 1595T676 1647T622 1656Q603 1645 593 1623T587 1565L457 1531Q442 1601 464 1661T536 1757T655 1794Q692
1794 735 1772T822 1722T900 1672T954 1650Q975 1650 985 1665T997 1702T995 1741L1128 1782Q1143 1707 1119 1647T1045 1550T927 1514Z" />
<glyph unicode="&#xd2;" horiz-adv-x="1540" d="M668 -26Q526 -26 409 30T211 187T95 418T80 700Q101 850 173 981T354 1213T597 1369T872 1426Q1015 1426 1132 1370T1329 1213T1445 982T1460 700Q1439 550 1367 419T1186 187T944 31T668 -26ZM697 182Q797 182
890 223T1059 335T1186 500T1252 700Q1267 806 1243 900T1162 1065T1025 1177T843 1218Q743 1218 650 1177T481 1065T354 900T288 700Q273 593 297 500T378 335T515 223T697 182ZM686 1798H894L934 1510H796L686 1798Z" />
<glyph unicode="&#xd3;" horiz-adv-x="1540" d="M668 -26Q526 -26 409 30T211 187T95 418T80 700Q101 850 173 981T354 1213T597 1369T872 1426Q1015 1426 1132 1370T1329 1213T1445 982T1460 700Q1439 550 1367 419T1186 187T944 31T668 -26ZM697 182Q797 182
890 223T1059 335T1186 500T1252 700Q1267 806 1243 900T1162 1065T1025 1177T843 1218Q743 1218 650 1177T481 1065T354 900T288 700Q273 593 297 500T378 335T515 223T697 182ZM830 1510L950 1798H1158L970 1510H830Z" />
<glyph unicode="&#xd4;" horiz-adv-x="1540" d="M668 -26Q526 -26 409 30T211 187T95 418T80 700Q101 850 173 981T354 1213T597 1369T872 1426Q1015 1426 1132 1370T1329 1213T1445 982T1460 700Q1439 550 1367 419T1186 187T944 31T668 -26ZM697 182Q797 182
890 223T1059 335T1186 500T1252 700Q1267 806 1243 900T1162 1065T1025 1177T843 1218Q743 1218 650 1177T481 1065T354 900T288 700Q273 593 297 500T378 335T515 223T697 182ZM1040 1798L1193 1510H1054L911 1707L715 1510H577L807 1798H1040Z" />
<glyph unicode="&#xd5;" horiz-adv-x="1540" d="M668 -26Q526 -26 409 30T211 187T95 418T80 700Q101 850 173 981T354 1213T597 1369T872 1426Q1015 1426 1132 1370T1329 1213T1445 982T1460 700Q1439 550 1367 419T1186 187T944 31T668 -26ZM697 182Q797 182
890 223T1059 335T1186 500T1252 700Q1267 806 1243 900T1162 1065T1025 1177T843 1218Q743 1218 650 1177T481 1065T354 900T288 700Q273 593 297 500T378 335T515 223T697 182ZM1039 1514Q1002 1514 957 1539T867 1595T788 1647T734 1656Q715 1645 705 1623T699
1565L569 1531Q554 1601 576 1661T648 1757T767 1794Q804 1794 847 1772T934 1722T1012 1672T1066 1650Q1087 1650 1097 1665T1109 1702T1107 1741L1240 1782Q1255 1707 1231 1647T1157 1550T1039 1514Z" />
<glyph unicode="&#xd6;" horiz-adv-x="1540" d="M668 -26Q526 -26 409 30T211 187T95 418T80 700Q101 850 173 981T354 1213T597 1369T872 1426Q1015 1426 1132 1370T1329 1213T1445 982T1460 700Q1439 550 1367 419T1186 187T944 31T668 -26ZM697 182Q797 182
890 223T1059 335T1186 500T1252 700Q1267 806 1243 900T1162 1065T1025 1177T843 1218Q743 1218 650 1177T481 1065T354 900T288 700Q273 593 297 500T378 335T515 223T697 182ZM695 1474Q649 1474 621 1505T599 1583Q606 1629 642 1661T726 1693Q772 1693 800
1661T821 1583Q814 1536 778 1505T695 1474ZM1064 1474Q1017 1474 989 1505T967 1583Q973 1629 1010 1661T1094 1693Q1140 1693 1168 1661T1189 1583Q1182 1536 1146 1505T1064 1474Z" />
<glyph unicode="&#xd7;" horiz-adv-x="1014" d="M153 173L26 320L345 600L106 880L273 1027L513 747L832 1027L959 880L639 600L880 320L712 173L471 453L153 173Z" />
<glyph unicode="&#xd8;" horiz-adv-x="1540" d="M318 -99L152 5L252 146Q153 245 105 389T80 700Q101 850 173 981T354 1213T597 1369T872 1426Q944 1426 1008 1411T1130 1368L1224 1499L1390 1395L1289 1256Q1389 1157 1436 1013T1460 700Q1439 550 1367 419T1186
187T944 31T668 -26Q598 -26 534 -11T412 33L318 -99ZM389 336L997 1183Q964 1199 925 1208T843 1218Q743 1218 650 1177T481 1065T354 900T288 700Q273 592 301 498T389 336ZM697 182Q797 182 890 223T1059 335T1186 500T1252 700Q1268 808 1241 902T1153 1065L545
218Q578 201 617 192T697 182Z" />
<glyph unicode="&#xd9;" horiz-adv-x="1348" d="M572 -26Q404 -26 292 56T130 276T104 584L218 1400H426L312 584Q297 474 324 383T421 237T602 182Q714 182 799 236T936 382T1004 584L1118 1400H1326L1212 584Q1194 457 1140 347T1001 152T807 21T572 -26ZM590
1798H798L838 1510H700L590 1798Z" />
<glyph unicode="&#xda;" horiz-adv-x="1348" d="M572 -26Q404 -26 292 56T130 276T104 584L218 1400H426L312 584Q297 474 324 383T421 237T602 182Q714 182 799 236T936 382T1004 584L1118 1400H1326L1212 584Q1194 457 1140 347T1001 152T807 21T572 -26ZM734
1510L854 1798H1062L874 1510H734Z" />
<glyph unicode="&#xdb;" horiz-adv-x="1348" d="M572 -26Q404 -26 292 56T130 276T104 584L218 1400H426L312 584Q297 474 324 383T421 237T602 182Q714 182 799 236T936 382T1004 584L1118 1400H1326L1212 584Q1194 457 1140 347T1001 152T807 21T572 -26ZM944
1798L1097 1510H958L815 1707L619 1510H481L711 1798H944Z" />
<glyph unicode="&#xdc;" horiz-adv-x="1348" d="M572 -26Q404 -26 292 56T130 276T104 584L218 1400H426L312 584Q297 474 324 383T421 237T602 182Q714 182 799 236T936 382T1004 584L1118 1400H1326L1212 584Q1194 457 1140 347T1001 152T807 21T572 -26ZM599
1474Q553 1474 525 1505T503 1583Q510 1629 546 1661T630 1693Q676 1693 704 1661T725 1583Q718 1536 682 1505T599 1474ZM968 1474Q921 1474 893 1505T871 1583Q877 1629 914 1661T998 1693Q1044 1693 1072 1661T1093 1583Q1086 1536 1050 1505T968 1474Z" />
<glyph unicode="&#xdd;" horiz-adv-x="1283" d="M1076 1400H1321L736 632L647 0H439L528 632L158 1400H403L664 859L1076 1400ZM701 1510L821 1798H1029L841 1510H701Z" />
<glyph unicode="&#xde;" horiz-adv-x="1067" d="M22 0L218 1400H426L386 1117H660Q774 1117 858 1061T982 910T1007 700Q991 583 922 489T753 339T544 283H270L230 0H22ZM298 491H552Q611 491 664 520T755 600T800 713Q809 776 787 826T719 906T614 936H361L298 491Z" />
<glyph unicode="&#xdf;" horiz-adv-x="1119" d="M22 0L150 918Q164 1017 213 1104T338 1258T506 1362T700 1400Q808 1400 888 1349T1007 1208T1031 1008Q1024 955 1001 900T938 798T842 724Q903 712 941 678T997 595T1018 493T1014 386Q999 277 933 190T769 51T562
0H488L480 180H567Q631 180 687 210T782 290T829 400Q838 461 814 510T741 589T629 620L543 623L567 795L593 797Q649 802 698 829T781 903T823 1008Q831 1066 811 1114T749 1190T652 1219Q583 1219 521 1185T418 1094T365 967L230 0H22Z" />
<glyph unicode="&#xe0;" horiz-adv-x="1185" d="M940 1000H1148L1008 0H799L811 145Q756 68 675 21T491 -26Q381 -26 290 15T136 131T45 301T33 509Q48 616 101 710T235 876T415 987T622 1028Q731 1028 807 979T928 852L940 1000ZM514 175Q602 175 674 218T793
336T853 500Q866 591 840 665T753 782T606 826Q519 826 441 782T311 664T245 500Q233 409 265 336T363 219T514 175ZM468 1398H676L716 1110H578L468 1398Z" />
<glyph unicode="&#xe1;" horiz-adv-x="1185" d="M940 1000H1148L1008 0H799L811 145Q756 68 675 21T491 -26Q381 -26 290 15T136 131T45 301T33 509Q48 616 101 710T235 876T415 987T622 1028Q731 1028 807 979T928 852L940 1000ZM514 175Q602 175 674 218T793
336T853 500Q866 591 840 665T753 782T606 826Q519 826 441 782T311 664T245 500Q233 409 265 336T363 219T514 175ZM611 1110L731 1398H939L751 1110H611Z" />
<glyph unicode="&#xe2;" horiz-adv-x="1185" d="M940 1000H1148L1008 0H799L811 145Q756 68 675 21T491 -26Q381 -26 290 15T136 131T45 301T33 509Q48 616 101 710T235 876T415 987T622 1028Q731 1028 807 979T928 852L940 1000ZM514 175Q602 175 674 218T793
336T853 500Q866 591 840 665T753 782T606 826Q519 826 441 782T311 664T245 500Q233 409 265 336T363 219T514 175ZM822 1398L975 1110H836L693 1307L497 1110H359L589 1398H822Z" />
<glyph unicode="&#xe3;" horiz-adv-x="1185" d="M940 1000H1148L1008 0H799L811 145Q756 68 675 21T491 -26Q381 -26 290 15T136 131T45 301T33 509Q48 616 101 710T235 876T415 987T622 1028Q731 1028 807 979T928 852L940 1000ZM514 175Q602 175 674 218T793
336T853 500Q866 591 840 665T753 782T606 826Q519 826 441 782T311 664T245 500Q233 409 265 336T363 219T514 175ZM1077 1114Q1040 1114 995 1139T905 1195T826 1247T772 1256Q753 1245 743 1223T737 1165L607 1131Q592 1201 614 1261T686 1357T805 1394Q842
1394 885 1372T972 1322T1050 1272T1104 1250Q1125 1250 1135 1265T1147 1302T1145 1341L1278 1382Q1293 1307 1269 1247T1195 1150T1077 1114Z" />
<glyph unicode="&#xe4;" horiz-adv-x="1185" d="M940 1000H1148L1008 0H799L811 145Q756 68 675 21T491 -26Q381 -26 290 15T136 131T45 301T33 509Q48 616 101 710T235 876T415 987T622 1028Q731 1028 807 979T928 852L940 1000ZM514 175Q602 175 674 218T793
336T853 500Q866 591 840 665T753 782T606 826Q519 826 441 782T311 664T245 500Q233 409 265 336T363 219T514 175ZM732 1074Q686 1074 658 1105T636 1183Q643 1229 679 1261T763 1293Q809 1293 837 1261T858 1183Q851 1136 815 1105T732 1074ZM1101 1074Q1054
1074 1026 1105T1004 1183Q1010 1229 1047 1261T1131 1293Q1177 1293 1205 1261T1226 1183Q1219 1136 1183 1105T1101 1074Z" />
<glyph unicode="&#xe5;" horiz-adv-x="1185" d="M940 1000H1148L1008 0H799L811 145Q756 68 675 21T491 -26Q381 -26 290 15T136 131T45 301T33 509Q48 616 101 710T235 876T415 987T622 1028Q731 1028 807 979T928 852L940 1000ZM514 175Q602 175 674 218T793
336T853 500Q866 591 840 665T753 782T606 826Q519 826 441 782T311 664T245 500Q233 409 265 336T363 219T514 175ZM660 1078Q588 1078 544 1130T509 1255Q516 1303 545 1343T617 1406T710 1430Q783 1430 827 1379T861 1255Q851 1181 792 1130T660 1078ZM675 1182Q704
1182 728 1203T757 1255Q761 1284 743 1304T695 1325Q665 1325 642 1305T614 1255Q609 1225 627 1204T675 1182Z" />
<glyph unicode="&#xe6;" horiz-adv-x="1745" d="M247 -25Q155 -25 89 15T-9 125T-29 280Q-17 362 32 431T159 543T330 586H664Q668 651 644 704T570 788T448 820Q371 820 299 784L209 957Q273 993 340 1010T474 1028Q591 1028 682 973T822 824Q873 885 939 931T1080
1002T1233 1028Q1349 1028 1438 981T1583 849T1655 657T1643 427H872Q874 358 904 302T988 214T1116 182Q1191 182 1259 220T1375 325L1580 276Q1501 143 1368 59T1085 -26Q999 -26 926 4T797 87T711 212Q664 147 591 93T429 7T247 -25ZM273 158Q362 158 438 200T565
308Q611 360 640 428H308Q249 428 207 390T156 294Q149 241 179 200T273 158ZM887 586H1455Q1455 658 1423 716T1335 809T1208 844Q1136 844 1071 810T958 718T887 586Z" />
<glyph unicode="&#xe7;" horiz-adv-x="1019" d="M714 284L886 183Q804 88 692 31T458 -26Q320 -26 217 45T63 235T32 500Q47 610 99 705T231 873T406 987T606 1028Q728 1028 824 971T976 818L775 717Q741 767 689 793T577 820Q494 820 422 776T301 659T240 500Q228
415 256 343T345 226T487 182Q550 182 609 210T714 284ZM671 -373Q600 -391 543 -356T477 -252L593 -222Q596 -244 614 -255T656 -261Q680 -255 694 -235T706 -192Q703 -169 685 -159T643 -152L525 -159L692 76L785 18L736 -50Q771 -63 794 -92T823 -163Q831 -231
787 -293T671 -373Z" />
<glyph unicode="&#xe8;" horiz-adv-x="1118" d="M458 -26Q320 -26 217 45T63 235T32 500Q47 610 99 705T231 873T406 987T606 1028Q721 1028 810 981T956 850T1029 658T1015 427H245Q247 358 277 303T361 215T487 182Q563 182 631 220T748 325L952 276Q873 143
741 59T458 -26ZM260 586H828Q828 658 796 716T709 809T581 844Q509 844 445 810T332 718T260 586ZM420 1398H628L668 1110H530L420 1398Z" />
<glyph unicode="&#xe9;" horiz-adv-x="1118" d="M458 -26Q320 -26 217 45T63 235T32 500Q47 610 99 705T231 873T406 987T606 1028Q721 1028 810 981T956 850T1029 658T1015 427H245Q247 358 277 303T361 215T487 182Q563 182 631 220T748 325L952 276Q873 143
741 59T458 -26ZM260 586H828Q828 658 796 716T709 809T581 844Q509 844 445 810T332 718T260 586ZM563 1110L683 1398H891L703 1110H563Z" />
<glyph unicode="&#xea;" horiz-adv-x="1118" d="M458 -26Q320 -26 217 45T63 235T32 500Q47 610 99 705T231 873T406 987T606 1028Q721 1028 810 981T956 850T1029 658T1015 427H245Q247 358 277 303T361 215T487 182Q563 182 631 220T748 325L952 276Q873 143
741 59T458 -26ZM260 586H828Q828 658 796 716T709 809T581 844Q509 844 445 810T332 718T260 586ZM774 1398L927 1110H788L645 1307L449 1110H311L541 1398H774Z" />
<glyph unicode="&#xeb;" horiz-adv-x="1118" d="M458 -26Q320 -26 217 45T63 235T32 500Q47 610 99 705T231 873T406 987T606 1028Q721 1028 810 981T956 850T1029 658T1015 427H245Q247 358 277 303T361 215T487 182Q563 182 631 220T748 325L952 276Q873 143
741 59T458 -26ZM260 586H828Q828 658 796 716T709 809T581 844Q509 844 445 810T332 718T260 586ZM428 1074Q382 1074 354 1105T332 1183Q339 1229 375 1261T459 1293Q505 1293 533 1261T554 1183Q547 1136 511 1105T428 1074ZM797 1074Q750 1074 722 1105T700
1183Q706 1229 743 1261T827 1293Q873 1293 901 1261T922 1183Q915 1136 879 1105T797 1074Z" />
<glyph unicode="&#xec;" horiz-adv-x="448" d="M162 1000H370L230 0H22L162 1000ZM84 1398H292L332 1110H194L84 1398Z" />
<glyph unicode="&#xed;" horiz-adv-x="448" d="M162 1000H370L230 0H22L162 1000ZM228 1110L348 1398H556L368 1110H228Z" />
<glyph unicode="&#xee;" horiz-adv-x="448" d="M162 1000H370L230 0H22L162 1000ZM694 1398L847 1110H708L565 1307L369 1110H231L461 1398H694Z" />
<glyph unicode="&#xef;" horiz-adv-x="448" d="M162 1000H370L230 0H22L162 1000ZM93 1074Q47 1074 19 1105T-3 1183Q4 1229 40 1261T124 1293Q170 1293 198 1261T219 1183Q212 1136 176 1105T93 1074ZM462 1074Q415 1074 387 1105T365 1183Q371 1229 408 1261T492
1293Q538 1293 566 1261T587 1183Q580 1136 544 1105T462 1074Z" />
<glyph unicode="&#xf0;" horiz-adv-x="1125" d="M483 1038L393 1142L892 1573L980 1469L483 1038ZM481 -26Q343 -26 238 42T81 224T49 476Q64 580 115 671T246 832T421 940T622 979Q686 979 737 955T820 887Q809 961 784 1035T714 1172T600 1271T433 1308L461
1516Q626 1516 749 1436T952 1216T1059 896T1059 516Q1037 357 956 235T751 44T481 -26ZM510 182Q593 182 665 222T787 330T847 476Q858 557 828 624T736 731T593 771Q511 771 439 731T317 624T257 476Q246 396 276 329T367 222T510 182Z" />
<glyph unicode="&#xf1;" horiz-adv-x="1100" d="M1010 627L922 0H714L795 576Q805 643 780 698T704 785T587 818Q520 818 461 786T361 698T311 576L230 0H22L162 1000H370L356 894Q416 956 497 992T666 1028Q777 1028 860 974T984 829T1010 627ZM1052 1114Q1015
1114 970 1139T880 1195T801 1247T747 1256Q728 1245 718 1223T712 1165L582 1131Q567 1201 589 1261T661 1357T780 1394Q817 1394 860 1372T947 1322T1025 1272T1079 1250Q1100 1250 1110 1265T1122 1302T1120 1341L1253 1382Q1268 1307 1244 1247T1170 1150T1052
1114Z" />
<glyph unicode="&#xf2;" horiz-adv-x="1120" d="M458 -26Q320 -26 217 45T63 235T32 500Q47 610 99 705T231 873T406 987T606 1028Q744 1028 847 957T1002 766T1032 500Q1017 391 965 296T833 129T658 15T458 -26ZM487 182Q570 182 642 226T763 342T824 500Q836
587 807 660T718 776T577 820Q495 820 423 776T301 659T240 500Q228 411 257 339T347 225T487 182ZM420 1398H628L668 1110H530L420 1398Z" />
<glyph unicode="&#xf3;" horiz-adv-x="1120" d="M458 -26Q320 -26 217 45T63 235T32 500Q47 610 99 705T231 873T406 987T606 1028Q744 1028 847 957T1002 766T1032 500Q1017 391 965 296T833 129T658 15T458 -26ZM487 182Q570 182 642 226T763 342T824 500Q836
587 807 660T718 776T577 820Q495 820 423 776T301 659T240 500Q228 411 257 339T347 225T487 182ZM564 1110L684 1398H892L704 1110H564Z" />
<glyph unicode="&#xf4;" horiz-adv-x="1120" d="M458 -26Q320 -26 217 45T63 235T32 500Q47 610 99 705T231 873T406 987T606 1028Q744 1028 847 957T1002 766T1032 500Q1017 391 965 296T833 129T658 15T458 -26ZM487 182Q570 182 642 226T763 342T824 500Q836
587 807 660T718 776T577 820Q495 820 423 776T301 659T240 500Q228 411 257 339T347 225T487 182ZM774 1398L927 1110H788L645 1307L449 1110H311L541 1398H774Z" />
<glyph unicode="&#xf5;" horiz-adv-x="1120" d="M458 -26Q320 -26 217 45T63 235T32 500Q47 610 99 705T231 873T406 987T606 1028Q744 1028 847 957T1002 766T1032 500Q1017 391 965 296T833 129T658 15T458 -26ZM487 182Q570 182 642 226T763 342T824 500Q836
587 807 660T718 776T577 820Q495 820 423 776T301 659T240 500Q228 411 257 339T347 225T487 182ZM1029 1114Q992 1114 947 1139T857 1195T778 1247T724 1256Q705 1245 695 1223T689 1165L559 1131Q544 1201 566 1261T638 1357T757 1394Q794 1394 837 1372T924
1322T1002 1272T1056 1250Q1077 1250 1087 1265T1099 1302T1097 1341L1230 1382Q1245 1307 1221 1247T1147 1150T1029 1114Z" />
<glyph unicode="&#xf6;" horiz-adv-x="1120" d="M458 -26Q320 -26 217 45T63 235T32 500Q47 610 99 705T231 873T406 987T606 1028Q744 1028 847 957T1002 766T1032 500Q1017 391 965 296T833 129T658 15T458 -26ZM487 182Q570 182 642 226T763 342T824 500Q836
587 807 660T718 776T577 820Q495 820 423 776T301 659T240 500Q228 411 257 339T347 225T487 182ZM429 1074Q383 1074 355 1105T333 1183Q340 1229 376 1261T460 1293Q506 1293 534 1261T555 1183Q548 1136 512 1105T429 1074ZM798 1074Q751 1074 723 1105T701
1183Q707 1229 744 1261T828 1293Q874 1293 902 1261T923 1183Q916 1136 880 1105T798 1074Z" />
<glyph unicode="&#xf7;" horiz-adv-x="1160" d="M51 496L81 704H1081L1051 496H51ZM634 1085Q684 1085 715 1048T739 961Q732 911 691 875T599 838Q546 838 517 874T494 961Q500 1010 540 1047T634 1085ZM532 362Q582 362 614 325T639 238Q632 187 590 151T498
115Q445 115 415 151T392 238Q399 288 439 325T532 362Z" />
<glyph unicode="&#xf8;" horiz-adv-x="1120" d="M222 -68L86 17L150 105Q81 177 49 279T32 500Q47 610 99 705T231 873T406 987T606 1028Q655 1028 700 1019T783 990L843 1071L979 986L916 898Q984 826 1016 723T1032 500Q1017 391 965 296T833 129T658 15T458
-26Q409 -26 365 -16T280 12L222 -68ZM277 281L665 824Q595 847 523 830T387 764T279 644T223 489Q215 426 230 373T277 281ZM399 179Q471 156 544 173T680 238T785 357T840 511Q849 574 835 628T788 721L399 179Z" />
<glyph unicode="&#xf9;" horiz-adv-x="1060" d="M35 375L122 1000H330L249 426Q240 359 265 304T340 217T457 184Q524 184 584 216T684 304T733 426L813 1000H1021L882 0H674L688 108Q628 46 547 10T379 -26Q268 -26 185 28T60 173T35 375ZM414 1399H622L662 1111H524L414
1399Z" />
<glyph unicode="&#xfa;" horiz-adv-x="1060" d="M35 375L122 1000H330L249 426Q240 359 265 304T340 217T457 184Q524 184 584 216T684 304T733 426L813 1000H1021L882 0H674L688 108Q628 46 547 10T379 -26Q268 -26 185 28T60 173T35 375ZM558 1111L678 1399H886L698
1111H558Z" />
<glyph unicode="&#xfb;" horiz-adv-x="1060" d="M35 375L122 1000H330L249 426Q240 359 265 304T340 217T457 184Q524 184 584 216T684 304T733 426L813 1000H1021L882 0H674L688 108Q628 46 547 10T379 -26Q268 -26 185 28T60 173T35 375ZM768 1399L921 1111H782L639
1308L443 1111H305L535 1399H768Z" />
<glyph unicode="&#xfc;" horiz-adv-x="1060" d="M35 375L122 1000H330L249 426Q240 359 265 304T340 217T457 184Q524 184 584 216T684 304T733 426L813 1000H1021L882 0H674L688 108Q628 46 547 10T379 -26Q268 -26 185 28T60 173T35 375ZM423 1075Q377 1075
349 1106T327 1184Q334 1230 370 1262T454 1294Q500 1294 528 1262T549 1184Q542 1137 506 1106T423 1075ZM792 1075Q745 1075 717 1106T695 1184Q701 1230 738 1262T822 1294Q868 1294 896 1262T917 1184Q910 1137 874 1106T792 1075Z" />
<glyph unicode="&#xfd;" horiz-adv-x="1107" d="M847 1000H1069L310 -500H89L341 0L122 1000H349L485 285L847 1000ZM557 1110L677 1398H885L697 1110H557Z" />
<glyph unicode="&#xfe;" horiz-adv-x="1226" d="M-49 -500L218 1400H426L350 853Q410 930 495 978T686 1026Q795 1026 884 985T1036 872T1126 704T1138 500Q1123 391 1069 295T932 127T748 13T538 -28Q432 -28 361 20T250 145L159 -500H-49ZM563 174Q649 174 727
217T859 335T926 500Q939 589 907 663T808 781T655 825Q568 825 496 781T377 664T317 500Q305 410 331 336T416 218T563 174Z" />
<glyph unicode="&#xff;" horiz-adv-x="1107" d="M847 1000H1069L310 -500H89L341 0L122 1000H349L485 285L847 1000ZM422 1074Q376 1074 348 1105T326 1183Q333 1229 369 1261T453 1293Q499 1293 527 1261T548 1183Q541 1136 505 1105T422 1074ZM791 1074Q744
1074 716 1105T694 1183Q700 1229 737 1261T821 1293Q867 1293 895 1261T916 1183Q909 1136 873 1105T791 1074Z" />
<glyph unicode="&#x2013;" horiz-adv-x="1240" d="M121 704H1121L1091 496H91L121 704Z" />
<glyph unicode="&#x2014;" horiz-adv-x="2040" d="M121 704H1921L1891 496H91L121 704Z" />
<glyph unicode="&#x2018;" horiz-adv-x="370" d="M85 878L290 1400H428L293 878H85Z" />
<glyph unicode="&#x2019;" horiz-adv-x="370" d="M65 878L200 1400H408L203 878H65Z" />
<glyph unicode="&#x201a;" horiz-adv-x="414" d="M206 -112L315 226H523L344 -112H206Z" />
<glyph unicode="&#x201c;" horiz-adv-x="750" d="M145 878L350 1400H488L353 878H145ZM465 882L670 1404H808L673 882H465Z" />
<glyph unicode="&#x201d;" horiz-adv-x="750" d="M65 878L200 1400H408L203 878H65ZM385 878L520 1400H728L523 878H385Z" />
<glyph unicode="&#x201e;" horiz-adv-x="751" d="M206 -112L315 226H523L344 -112H206ZM287 -112L396 226H604L425 -112H287Z" />
<glyph unicode="&#x2022;" horiz-adv-x="452" d="M191 453Q130 453 94 495T66 601Q74 661 122 704T232 747Q294 747 330 704T358 601Q350 538 302 496T191 453Z" />
<glyph unicode="&#x2039;" horiz-adv-x="735" d="M358 261L106 601L454 939H669L323 601L573 261H358Z" />
<glyph unicode="&#x203a;" horiz-adv-x="735" d="M38 261L385 601L134 939H349L601 601L253 261H38Z" />
</font>
</defs>
</svg>
